<svg width="22" height="19" viewBox="0 0 22 19" fill="none" xmlns="http://www.w3.org/2000/svg">
<path d="M2.10938 0.000748166C1.49929 0.000748166 1 0.509546 1 1.11794V6.74294C0.386722 7.2846 0 8.07212 0 8.95387V18.0007C1.32584e-05 18.1334 0.0526959 18.2605 0.146461 18.3543C0.240227 18.4481 0.367396 18.5007 0.5 18.5007H2.75C2.8826 18.5007 3.00977 18.4481 3.10354 18.3543C3.1973 18.2605 3.24999 18.1334 3.25 18.0007V15.5007H18.75V18.0007C18.75 18.1334 18.8027 18.2605 18.8965 18.3543C18.9902 18.4481 19.1174 18.5007 19.25 18.5007H21.5C21.6326 18.5007 21.7598 18.4481 21.8535 18.3543C21.9473 18.2605 22 18.1334 22 18.0007V8.95387C22 8.07212 21.6133 7.2846 21 6.74294V1.11794C21 0.509543 20.5007 0.000748166 19.8906 0.000748166H5.03906C5.02085 -0.000249389 5.00259 -0.000249389 4.98438 0.000748166C4.91871 0.00433263 4.85439 0.0208165 4.7951 0.0492587C4.7358 0.0777009 4.68269 0.117544 4.6388 0.166514C4.5949 0.215483 4.56108 0.272619 4.53927 0.33466C4.51746 0.3967 4.50808 0.46243 4.51167 0.528095C4.51526 0.59376 4.53175 0.658074 4.5602 0.717366C4.58865 0.776658 4.6285 0.829766 4.67747 0.873656C4.72644 0.917547 4.78358 0.951361 4.84562 0.973167C4.90767 0.994974 4.9734 1.00435 5.03906 1.00075H19.8906C19.9583 1.00075 20 1.04275 20 1.11794V6.157C19.7617 6.07586 19.5113 6.02563 19.25 6.00856V4.36794C19.25 3.75597 18.7438 3.25075 18.1328 3.25075H12.6172C12.0062 3.25075 11.5 3.75597 11.5 4.36794V6.00075H10.5V4.36794C10.5 3.75597 9.99385 3.25075 9.38281 3.25075H3.86719C3.25615 3.25075 2.75 3.75597 2.75 4.36794V6.00856C2.48874 6.02563 2.23835 6.07586 2 6.157V1.11794C2 1.04275 2.04169 1.00075 2.10938 1.00075H2.72656C2.79282 1.00169 2.8586 0.989445 2.92008 0.964738C2.98157 0.940031 3.03753 0.90335 3.08471 0.856828C3.1319 0.810306 3.16937 0.75487 3.19494 0.693741C3.22051 0.632612 3.23368 0.567011 3.23368 0.500748C3.23368 0.434486 3.22051 0.368884 3.19494 0.307755C3.16937 0.246627 3.1319 0.19119 3.08471 0.144668C3.03753 0.0981459 2.98157 0.0614655 2.92008 0.0367587C2.8586 0.0120518 2.79282 -0.000188858 2.72656 0.000748166H2.10938ZM3.86719 4.25075H9.38281C9.45861 4.25075 9.5 4.29632 9.5 4.36794V6.00075H3.75V4.36794C3.75 4.29632 3.79139 4.25075 3.86719 4.25075ZM12.6172 4.25075H18.1328C18.2086 4.25075 18.25 4.29632 18.25 4.36794V6.00075H12.5V4.36794C12.5 4.29632 12.5414 4.25075 12.6172 4.25075ZM2.94531 7.00075H19.0547C20.1424 7.00075 21 7.86117 21 8.95387V12.0007H1V8.95387C1 7.86117 1.85755 7.00075 2.94531 7.00075ZM1 13.0007H21V17.5007H19.75V15.0007C19.75 14.8681 19.6973 14.741 19.6035 14.6472C19.5098 14.5534 19.3826 14.5008 19.25 14.5007H2.75C2.6174 14.5008 2.49023 14.5534 2.39646 14.6472C2.3027 14.741 2.25001 14.8681 2.25 15.0007V17.5007H1V13.0007Z" fill="#205CA4"/>
</svg>
