<svg width="42" height="47" viewBox="0 0 42 47" fill="none" xmlns="http://www.w3.org/2000/svg">
<path d="M3.55316 38.3322C4.1896 39.2571 5.21591 39.7543 6.2601 39.7543C6.90128 39.7543 7.54902 39.5668 8.11725 39.1758C9.61113 38.1495 9.98898 36.1053 8.96193 34.611C8.3255 33.6864 7.29882 33.1893 6.25463 33.1893C6.02267 33.1893 5.79144 33.2229 5.5624 33.2729C5.30272 32.4997 5.16339 31.6765 5.16339 30.8362C5.16339 28.7277 6.01574 26.8359 7.35973 25.5295C7.99616 26.0048 8.76316 26.2597 9.54293 26.2597C10.2552 26.2597 10.9752 26.0514 11.6065 25.6167C13.2663 24.4762 13.6858 22.2051 12.5453 20.5449C11.8381 19.5175 10.6973 18.9653 9.53709 18.9653C8.82443 18.9653 8.10448 19.1736 7.47315 19.608C5.8932 20.6937 5.44058 22.804 6.38556 24.4357C4.74178 26.0095 3.70452 28.2952 3.70452 30.8362C3.70452 31.892 3.89053 32.9256 4.23482 33.8918C2.88026 34.9517 2.56514 36.8956 3.55316 38.3322ZM10.7793 24.4146C10.4128 24.6677 9.98533 24.8008 9.54293 24.8008C9.20593 24.8008 8.88096 24.7209 8.58664 24.5787C9.4357 24.0736 10.3997 23.7752 11.4216 23.7238C11.2648 23.9901 11.051 24.2286 10.7793 24.4146ZM7.3889 22.2142C7.49504 21.6394 7.81854 21.1409 8.29997 20.8101C8.66651 20.5577 9.09433 20.4242 9.53709 20.4242C10.2592 20.4242 10.9351 20.7787 11.3428 21.371C11.5295 21.6431 11.6441 21.9429 11.6951 22.2485C10.1761 22.2551 8.7555 22.7157 7.54573 23.5097C7.36337 23.1067 7.30648 22.6588 7.3889 22.2142ZM6.25463 34.6482C6.85678 34.6482 7.41954 34.944 7.75946 35.4375C8.03409 35.8368 8.13658 36.3186 8.05087 36.7953C8.00929 36.7333 7.96005 36.6749 7.89805 36.6264C7.20873 36.0877 6.63357 35.4137 6.18971 34.6533C6.21159 34.6526 6.23311 34.6482 6.25463 34.6482ZM6.99975 37.776C7.10734 37.8599 7.23244 37.9 7.35863 37.9161C7.33492 37.9343 7.31523 37.9566 7.29006 37.9741C6.98443 38.1841 6.62847 38.2954 6.2601 38.2954C5.65832 38.2954 5.09556 37.9996 4.75528 37.5054C4.47918 37.1039 4.37597 36.6191 4.46459 36.1399C4.52368 35.82 4.66993 35.533 4.876 35.2923C5.41906 36.2504 6.13537 37.1002 6.99975 37.776Z" fill="#CACBCB"/>
<path d="M2.77025 27.5417C2.95699 26.9738 3.18931 26.4289 3.46468 25.9125C1.10386 21.7171 2.26256 16.2967 6.24456 13.5121C7.78403 12.4354 9.5799 11.8668 11.4381 11.8668C13.1414 11.8668 14.8078 12.3442 16.2572 13.2466C16.4935 13.3939 16.7612 13.4668 17.0282 13.4668C17.3214 13.4668 17.6139 13.3786 17.8645 13.2032L34.4588 1.59126C34.5459 1.53619 34.8016 1.45887 34.9307 1.45887C34.9668 1.46142 35.0029 1.46288 35.039 1.46288C35.0394 1.46288 35.0398 1.46288 35.0401 1.46288L39.2194 1.45997L37.9998 6.41028L37.3645 6.85451L34.4982 6.23741C34.3964 6.21552 34.2936 6.20458 34.1911 6.20458C33.9048 6.20458 33.6217 6.28883 33.3799 6.45077C33.0517 6.67033 32.8263 7.01353 32.7555 7.40232L32.3452 9.65737L30.0034 8.98957C29.8721 8.952 29.7375 8.93377 29.6033 8.93377C29.2929 8.93377 28.9869 9.03261 28.7323 9.22226C28.368 9.49361 28.1502 9.91887 28.1444 10.3729L28.1178 12.3734L26.1064 11.8453C25.9842 11.8136 25.8598 11.7975 25.7358 11.7975C25.4553 11.7975 25.1782 11.8785 24.9385 12.0346C24.5939 12.2596 24.3597 12.62 24.2948 13.0266L23.7342 16.5447L21.1509 18.3508C20.6947 18.6699 20.4594 19.221 20.5455 19.771C21.1002 23.3321 19.575 26.9505 16.6602 28.9889C15.12 30.0666 13.3223 30.6363 11.4622 30.6363C9.80056 30.6363 8.19908 30.1782 6.80659 29.3489C6.68842 29.8223 6.62204 30.3201 6.62204 30.8362C6.62204 30.8643 6.62532 30.892 6.62605 30.9204C8.12759 31.6933 9.78779 32.0952 11.4622 32.0952C13.5458 32.0952 15.6499 31.4763 17.4965 30.1852C20.9967 27.7375 22.6102 23.5455 21.9872 19.5471L25.0779 17.3861L25.7362 13.2568L28.8002 14.0613C28.8625 14.0774 28.9235 14.085 28.9814 14.085C29.3097 14.085 29.557 13.8389 29.5621 13.469L29.6033 10.3926L32.7453 11.2888C32.8139 11.3084 32.8821 11.3176 32.9485 11.3176C33.2811 11.3176 33.5681 11.0831 33.6334 10.726L34.1907 7.66382L37.2999 8.33308C37.3452 8.34256 37.3958 8.3473 37.448 8.3473C37.6384 8.3473 37.8605 8.28749 37.9987 8.1912L38.9576 7.52049C39.1337 7.39685 39.3223 7.12659 39.377 6.91651L40.8789 0.820251C40.9905 0.398637 40.7334 0.0320952 40.3067 0.000364718L35.0387 0.00437662C35.0055 0.00145887 34.9705 0 34.9344 0C34.5142 0 33.9518 0.166311 33.6269 0.393166L17.0285 12.0076C15.3395 10.9558 13.3981 10.4076 11.4385 10.4072C9.3567 10.4072 7.2541 11.0254 5.40899 12.3158C0.555685 15.7102 -0.672321 22.4619 2.66521 27.3962C2.69913 27.4461 2.73597 27.4924 2.77025 27.5417Z" fill="#CACBCB"/>
<path d="M39.0823 26.2597H22.5084C22.2877 26.7619 22.0342 27.2495 21.7494 27.7186H39.0823C39.8868 27.7186 40.5411 28.3732 40.5411 29.1774V43.7662C40.5411 44.5704 39.8868 45.225 39.0823 45.225H9.64222C8.48424 45.225 6.77481 44.3986 6.05558 43.4912L1.91859 38.271C1.33139 37.5291 1.30404 36.1574 1.86206 35.3933L2.7837 34.1307C2.58201 33.5227 2.44013 32.8921 2.35078 32.2495L0.683653 34.5333C-0.262791 35.8295 -0.221213 37.919 0.775197 39.1766L4.91219 44.3968C5.9086 45.6543 8.0371 46.6835 9.64222 46.6835H39.0823C40.687 46.6835 42 45.3706 42 43.7658V29.1774C42 27.5727 40.687 26.2597 39.0823 26.2597Z" fill="#CACBCB"/>
</svg>
