<svg width="34" height="41" viewBox="0 0 34 41" fill="none" xmlns="http://www.w3.org/2000/svg">
<path d="M20.5 1H4.9C3.86566 1 2.87368 1.41089 2.14228 2.14228C1.41089 2.87368 1 3.86566 1 4.9V36.1C1 37.1343 1.41089 38.1263 2.14228 38.8577C2.87368 39.5891 3.86566 40 4.9 40H28.3C29.3343 40 30.3263 39.5891 31.0577 38.8577C31.7891 38.1263 32.2 37.1343 32.2 36.1V12.7L20.5 1Z" stroke="#205CA4" stroke-width="2" stroke-linecap="round" stroke-linejoin="round"/>
<path d="M20.5 1V12.7H32.2" stroke="#205CA4" stroke-width="2" stroke-linecap="round" stroke-linejoin="round"/>
<path d="M24.3998 22.45H8.7998" stroke="#205CA4" stroke-width="2" stroke-linecap="round" stroke-linejoin="round"/>
<path d="M24.3998 30.25H8.7998" stroke="#205CA4" stroke-width="2" stroke-linecap="round" stroke-linejoin="round"/>
<path d="M12.6998 14.65H10.7498H8.7998" stroke="#205CA4" stroke-width="2" stroke-linecap="round" stroke-linejoin="round"/>
</svg>
