<svg width="44" height="49" viewBox="0 0 44 49" fill="none" xmlns="http://www.w3.org/2000/svg">
<path d="M36.3737 2.31579V2.41579H36.4737H42.8421C43.4237 2.41579 43.9 2.89207 43.9 3.47368V32.4211C43.9 33.0027 43.4237 33.479 42.8421 33.479H26.0526H25.9526V33.5789V47.4737C25.9526 48.0553 25.4763 48.5316 24.8947 48.5316H19.1053C18.5236 48.5316 18.0474 48.0553 18.0474 47.4737V33.5789V33.479H17.9474H1.15789C0.576281 33.479 0.1 33.0027 0.1 32.4211V3.47368C0.1 2.89207 0.576281 2.41579 1.15789 2.41579H7.52632H7.62632V2.31579V1.15789C7.62632 0.576281 8.1026 0.1 8.68421 0.1H14.4737C15.0553 0.1 15.5316 0.576281 15.5316 1.15789V2.31579V2.41579H15.6316H28.3684H28.4684V2.31579V1.15789C28.4684 0.576281 28.9447 0.1 29.5263 0.1H35.3158C35.8974 0.1 36.3737 0.576281 36.3737 1.15789V2.31579ZM23.7368 46.4158H23.8368V46.3158V33.5789V33.479H23.7368H20.2632H20.1632V33.5789V46.3158V46.4158H20.2632H23.7368ZM41.6842 31.3632H41.7842V31.2632V4.63158V4.53158H41.6842H35.3158H29.5263H14.4737H8.68421H2.31579H2.21579V4.63158V31.2632V31.3632H2.31579H19.1053H24.8947H41.6842Z" fill="#CACBCB" stroke="white" stroke-width="0.2"/>
<path d="M13.2602 12.9938L13.2601 12.9939L13.2642 12.9963L17.3147 15.4266C17.6421 15.6456 17.8407 15.9593 17.7903 16.3122L17.7893 16.3192V16.3264V23.1579C17.7893 23.7395 17.313 24.2158 16.7314 24.2158H13.2577H12.0998H8.62616C8.04454 24.2158 7.56826 23.7395 7.56826 23.1579V16.3264C7.56826 15.9632 7.77498 15.6445 8.10073 15.4266L12.1504 12.9969C12.5273 12.7819 12.9489 12.7863 13.2602 12.9938ZM15.6314 22.1H15.7314V22V16.9632V16.9066L15.6829 16.8774L12.7881 15.1406L12.7367 15.1097L12.6852 15.1406L9.7905 16.8774L9.74195 16.9066V16.9632V22V22.1H9.84195H10.9998H11.0998V22V20.8421C11.0998 20.2605 11.5761 19.7842 12.1577 19.7842H13.3156C13.8972 19.7842 14.3735 20.2605 14.3735 20.8421V22V22.1H14.4735H15.6314Z" fill="#CACBCB" stroke="white" stroke-width="0.2"/>
<path d="M26.632 17.4684H35.8952C36.4768 17.4684 36.9531 17.9447 36.9531 18.5263C36.9531 19.1079 36.4768 19.5842 35.8952 19.5842H26.632C26.0504 19.5842 25.5741 19.1079 25.5741 18.5263C25.5741 17.9447 26.0504 17.4684 26.632 17.4684Z" fill="#CACBCB" stroke="white" stroke-width="0.2"/>
<path d="M26.632 22.1H35.8952C36.4768 22.1 36.9531 22.5763 36.9531 23.1579C36.9531 23.7395 36.4768 24.2158 35.8952 24.2158H26.632C26.0504 24.2158 25.5741 23.7395 25.5741 23.1579C25.5741 22.5763 26.0504 22.1 26.632 22.1Z" fill="#CACBCB" stroke="white" stroke-width="0.2"/>
<path d="M26.632 14.9527C26.0504 14.9527 25.5741 14.4764 25.5741 13.8948C25.5741 13.3132 26.0504 12.8369 26.632 12.8369H35.8952C36.4768 12.8369 36.9531 13.3132 36.9531 13.8948C36.9531 14.4764 36.4768 14.9527 35.8952 14.9527H26.632Z" fill="#CACBCB" stroke="white" stroke-width="0.2"/>
</svg>
