<svg width="38" height="37" viewBox="0 0 38 37" fill="none" xmlns="http://www.w3.org/2000/svg">
<rect x="0.462891" width="36.5518" height="36.5518" rx="18.2759" fill="white"/>
<path d="M23.7388 8.27588H13.7388C10.9773 8.27588 8.73877 10.5145 8.73877 13.2759V23.2759C8.73877 26.0373 10.9773 28.2759 13.7388 28.2759H23.7388C26.5002 28.2759 28.7388 26.0373 28.7388 23.2759V13.2759C28.7388 10.5145 26.5002 8.27588 23.7388 8.27588Z" stroke="#205CA4" stroke-width="1.2" stroke-linecap="round" stroke-linejoin="round"/>
<path d="M22.739 17.6459C22.8624 18.4782 22.7202 19.3282 22.3327 20.075C21.9452 20.8217 21.3321 21.4273 20.5806 21.8056C19.8291 22.1839 18.9774 22.3155 18.1468 22.1819C17.3161 22.0482 16.5487 21.656 15.9538 21.0611C15.3589 20.4662 14.9667 19.6988 14.833 18.8681C14.6994 18.0375 14.831 17.1858 15.2093 16.4343C15.5876 15.6828 16.1932 15.0697 16.9399 14.6822C17.6867 14.2947 18.5367 14.1525 19.369 14.2759C20.2179 14.4018 21.0038 14.7974 21.6107 15.4042C22.2175 16.0111 22.6131 16.797 22.739 17.6459Z" stroke="#205CA4" stroke-width="1.2" stroke-linecap="round" stroke-linejoin="round"/>
<path d="M24.2388 12.7759H24.2488" stroke="#205CA4" stroke-linecap="round" stroke-linejoin="round"/>
</svg>
