<svg width="22" height="22" viewBox="0 0 22 22" fill="none" xmlns="http://www.w3.org/2000/svg">
<g opacity="0.7">
<path d="M15.9629 1H5.96289C3.20147 1 0.962891 3.23858 0.962891 6V16C0.962891 18.7614 3.20147 21 5.96289 21H15.9629C18.7243 21 20.9629 18.7614 20.9629 16V6C20.9629 3.23858 18.7243 1 15.9629 1Z" stroke="#205CA4" stroke-linecap="round" stroke-linejoin="round"/>
<path d="M14.9631 10.3701C15.0865 11.2023 14.9443 12.0523 14.5568 12.7991C14.1693 13.5459 13.5562 14.1515 12.8047 14.5297C12.0532 14.908 11.2015 15.0397 10.3709 14.906C9.54021 14.7723 8.77285 14.3801 8.17792 13.7852C7.583 13.1903 7.19082 12.4229 7.05715 11.5923C6.92349 10.7616 7.05515 9.90995 7.43341 9.15843C7.81167 8.40691 8.41727 7.7938 9.16407 7.4063C9.91087 7.0188 10.7608 6.87665 11.5931 7.00006C12.442 7.12594 13.2279 7.52152 13.8348 8.12836C14.4416 8.73521 14.8372 9.52113 14.9631 10.3701Z" stroke="#205CA4" stroke-linecap="round" stroke-linejoin="round"/>
<path d="M16.4629 5.5H16.4729" stroke="#205CA4" stroke-linecap="round" stroke-linejoin="round"/>
</g>
</svg>
