<svg width="38" height="37" viewBox="0 0 38 37" fill="none" xmlns="http://www.w3.org/2000/svg">
<rect x="0.925781" width="36.5518" height="36.5518" rx="18.2759" fill="white"/>
<path d="M23.2017 14.7759C24.793 14.7759 26.3191 15.408 27.4443 16.5332C28.5695 17.6585 29.2017 19.1846 29.2017 20.7759V27.7759H25.2017V20.7759C25.2017 20.2454 24.9909 19.7367 24.6159 19.3617C24.2408 18.9866 23.7321 18.7759 23.2017 18.7759C22.6712 18.7759 22.1625 18.9866 21.7874 19.3617C21.4124 19.7367 21.2017 20.2454 21.2017 20.7759V27.7759H17.2017V20.7759C17.2017 19.1846 17.8338 17.6585 18.959 16.5332C20.0842 15.408 21.6104 14.7759 23.2017 14.7759V14.7759Z" stroke="#205CA4" stroke-linecap="round" stroke-linejoin="round"/>
<path d="M13.2017 15.7759H9.20166V27.7759H13.2017V15.7759Z" stroke="#205CA4" stroke-linecap="round" stroke-linejoin="round"/>
<path d="M11.2017 12.7759C12.3062 12.7759 13.2017 11.8804 13.2017 10.7759C13.2017 9.67131 12.3062 8.77588 11.2017 8.77588C10.0971 8.77588 9.20166 9.67131 9.20166 10.7759C9.20166 11.8804 10.0971 12.7759 11.2017 12.7759Z" stroke="#205CA4" stroke-linecap="round" stroke-linejoin="round"/>
</svg>
