<svg width="125" height="48" viewBox="0 0 125 48" fill="none" xmlns="http://www.w3.org/2000/svg">
<rect width="125" height="48" rx="10" fill="#7DAFEB" fill-opacity="0.3"/>
<path d="M20.8028 20.6056C21.7985 20.6056 22.6056 19.7985 22.6056 18.8028C22.6056 17.8072 21.7985 17 20.8028 17C19.8072 17 19 17.8072 19 18.8028C19 19.7985 19.8072 20.6056 20.8028 20.6056Z" fill="#7DAFEB"/>
<path d="M24.3078 21.9718V31.9738H27.4133V27.0276C27.4133 25.7225 27.6589 24.4585 29.2771 24.4585C30.8731 24.4585 30.8929 25.9507 30.8929 27.11V31.9747H34V26.4896C34 23.7952 33.42 21.7246 30.2708 21.7246C28.7588 21.7246 27.7454 22.5543 27.3309 23.3396H27.2889V21.9718H24.3078ZM19.2471 21.9718H22.3575V31.9738H19.2471V21.9718Z" fill="#7DAFEB"/>
<path d="M47.988 29C47.3813 29 47.078 28.692 47.078 28.076V19.998C47.078 19.3913 47.3767 19.088 47.974 19.088C48.5713 19.088 48.87 19.3913 48.87 19.998V27.474H52.93C53.4527 27.474 53.714 27.726 53.714 28.23C53.714 28.7433 53.4527 29 52.93 29H47.988ZM55.4993 20.754C55.1727 20.754 54.916 20.6747 54.7293 20.516C54.552 20.348 54.4633 20.1193 54.4633 19.83C54.4633 19.5313 54.552 19.3027 54.7293 19.144C54.916 18.9853 55.1727 18.906 55.4993 18.906C56.19 18.906 56.5353 19.214 56.5353 19.83C56.5353 20.446 56.19 20.754 55.4993 20.754ZM55.4993 29.098C55.2193 29.098 55.0047 29.014 54.8553 28.846C54.706 28.678 54.6313 28.4447 54.6313 28.146V23.008C54.6313 22.3733 54.9207 22.056 55.4993 22.056C56.0873 22.056 56.3813 22.3733 56.3813 23.008V28.146C56.3813 28.4447 56.3067 28.678 56.1573 28.846C56.008 29.014 55.7887 29.098 55.4993 29.098ZM58.9277 29.112C58.349 29.112 58.0597 28.8133 58.0597 28.216V22.924C58.0597 22.336 58.3444 22.042 58.9137 22.042C59.483 22.042 59.7677 22.336 59.7677 22.924V23.218C60.001 22.826 60.3137 22.5273 60.7057 22.322C61.107 22.1167 61.555 22.014 62.0497 22.014C63.6644 22.014 64.4717 22.952 64.4717 24.828V28.216C64.4717 28.8133 64.1824 29.112 63.6037 29.112C63.0157 29.112 62.7217 28.8133 62.7217 28.216V24.912C62.7217 24.38 62.619 23.9927 62.4137 23.75C62.2177 23.5073 61.9097 23.386 61.4897 23.386C60.9764 23.386 60.5657 23.5493 60.2577 23.876C59.959 24.1933 59.8097 24.618 59.8097 25.15V28.216C59.8097 28.8133 59.5157 29.112 58.9277 29.112ZM66.9771 29.112C66.3985 29.112 66.1091 28.8133 66.1091 28.216V19.9C66.1091 19.312 66.3985 19.018 66.9771 19.018C67.5651 19.018 67.8591 19.312 67.8591 19.9V25.066H67.8871L70.1971 22.63C70.3838 22.4433 70.5471 22.2987 70.6871 22.196C70.8271 22.0933 71.0185 22.042 71.2611 22.042C71.5038 22.042 71.6858 22.1073 71.8071 22.238C71.9378 22.3593 72.0031 22.5087 72.0031 22.686C72.0031 22.8633 71.9191 23.0407 71.7511 23.218L69.6511 25.43L71.9891 27.95C72.1571 28.1273 72.2318 28.3093 72.2131 28.496C72.2038 28.6733 72.1291 28.8227 71.9891 28.944C71.8491 29.056 71.6718 29.112 71.4571 29.112C71.1958 29.112 70.9858 29.0607 70.8271 28.958C70.6778 28.8553 70.5098 28.7013 70.3231 28.496L67.8871 25.948H67.8591V28.216C67.8591 28.8133 67.5651 29.112 66.9771 29.112ZM76.7123 29.14C75.9376 29.14 75.2703 28.9953 74.7103 28.706C74.1503 28.4167 73.7163 28.006 73.4083 27.474C73.1096 26.942 72.9603 26.312 72.9603 25.584C72.9603 24.8747 73.1049 24.254 73.3943 23.722C73.6929 23.19 74.0989 22.7747 74.6123 22.476C75.1349 22.168 75.7276 22.014 76.3903 22.014C77.3609 22.014 78.1263 22.322 78.6863 22.938C79.2556 23.554 79.5403 24.394 79.5403 25.458C79.5403 25.8033 79.3163 25.976 78.8683 25.976H74.6403C74.7709 27.1987 75.4709 27.81 76.7403 27.81C76.9829 27.81 77.2536 27.782 77.5523 27.726C77.8603 27.6607 78.1496 27.5533 78.4203 27.404C78.6629 27.264 78.8683 27.222 79.0363 27.278C79.2043 27.3247 79.3209 27.4227 79.3863 27.572C79.4609 27.7213 79.4703 27.8893 79.4143 28.076C79.3676 28.2533 79.2369 28.4073 79.0223 28.538C78.6956 28.7433 78.3176 28.8973 77.8883 29C77.4683 29.0933 77.0763 29.14 76.7123 29.14ZM76.4603 23.204C75.9469 23.204 75.5316 23.3627 75.2143 23.68C74.8969 23.9973 74.7056 24.4267 74.6403 24.968H78.0843C78.0469 24.3987 77.8883 23.9647 77.6083 23.666C77.3376 23.358 76.9549 23.204 76.4603 23.204ZM83.4182 29.14C82.8208 29.14 82.2935 28.9953 81.8362 28.706C81.3882 28.4167 81.0382 28.006 80.7862 27.474C80.5342 26.9327 80.4082 26.298 80.4082 25.57C80.4082 24.8327 80.5342 24.2027 80.7862 23.68C81.0382 23.148 81.3882 22.7373 81.8362 22.448C82.2935 22.1587 82.8208 22.014 83.4182 22.014C83.9035 22.014 84.3422 22.1213 84.7342 22.336C85.1262 22.5507 85.4202 22.8353 85.6162 23.19V19.9C85.6162 19.312 85.9055 19.018 86.4842 19.018C87.0722 19.018 87.3662 19.312 87.3662 19.9V28.216C87.3662 28.8133 87.0768 29.112 86.4982 29.112C85.9195 29.112 85.6302 28.8133 85.6302 28.216V27.922C85.4342 28.2953 85.1402 28.594 84.7482 28.818C84.3562 29.0327 83.9128 29.14 83.4182 29.14ZM83.9082 27.81C84.4308 27.81 84.8508 27.6233 85.1682 27.25C85.4855 26.8673 85.6442 26.3073 85.6442 25.57C85.6442 24.8233 85.4855 24.268 85.1682 23.904C84.8508 23.5307 84.4308 23.344 83.9082 23.344C83.3855 23.344 82.9655 23.5307 82.6482 23.904C82.3308 24.268 82.1722 24.8233 82.1722 25.57C82.1722 26.3073 82.3308 26.8673 82.6482 27.25C82.9655 27.6233 83.3855 27.81 83.9082 27.81ZM89.9087 20.754C89.582 20.754 89.3254 20.6747 89.1387 20.516C88.9614 20.348 88.8727 20.1193 88.8727 19.83C88.8727 19.5313 88.9614 19.3027 89.1387 19.144C89.3254 18.9853 89.582 18.906 89.9087 18.906C90.5994 18.906 90.9447 19.214 90.9447 19.83C90.9447 20.446 90.5994 20.754 89.9087 20.754ZM89.9087 29.098C89.6287 29.098 89.414 29.014 89.2647 28.846C89.1154 28.678 89.0407 28.4447 89.0407 28.146V23.008C89.0407 22.3733 89.33 22.056 89.9087 22.056C90.4967 22.056 90.7907 22.3733 90.7907 23.008V28.146C90.7907 28.4447 90.716 28.678 90.5667 28.846C90.4174 29.014 90.198 29.098 89.9087 29.098ZM93.3371 29.112C92.7584 29.112 92.4691 28.8133 92.4691 28.216V22.924C92.4691 22.336 92.7537 22.042 93.3231 22.042C93.8924 22.042 94.1771 22.336 94.1771 22.924V23.218C94.4104 22.826 94.7231 22.5273 95.1151 22.322C95.5164 22.1167 95.9644 22.014 96.4591 22.014C98.0737 22.014 98.8811 22.952 98.8811 24.828V28.216C98.8811 28.8133 98.5917 29.112 98.0131 29.112C97.4251 29.112 97.1311 28.8133 97.1311 28.216V24.912C97.1311 24.38 97.0284 23.9927 96.8231 23.75C96.6271 23.5073 96.3191 23.386 95.8991 23.386C95.3857 23.386 94.9751 23.5493 94.6671 23.876C94.3684 24.1933 94.2191 24.618 94.2191 25.15V28.216C94.2191 28.8133 93.9251 29.112 93.3371 29.112Z" fill="#7DAFEB"/>
</svg>
