<svg width="250" height="43" viewBox="0 0 250 43" fill="none" xmlns="http://www.w3.org/2000/svg">
<path d="M31.937 20.3769C28.3671 16.7548 24.8093 13.1174 21.2455 9.48618C21.0463 9.28087 20.8379 9.08168 20.6112 8.90701C19.6398 8.15931 18.5856 8.01223 17.4488 8.50252C17.1638 8.6251 16.8727 8.72928 16.5785 8.82734C11.9391 10.3687 7.29963 11.904 2.66327 13.4514C2.44263 13.525 2.18829 13.5373 1.99524 13.7579C2.88697 14.1961 3.58564 14.8672 4.25367 15.572C4.74703 16.0929 5.20668 16.6445 5.70923 17.1532C11.1056 22.6322 16.5141 28.0991 21.8982 33.5904C24.4048 36.146 27.0034 38.6159 29.3875 41.2942C29.7368 41.6864 30.1168 42.0541 30.5765 42.3207C31.315 42.7497 32.0075 42.4739 32.2618 41.6527C32.3476 41.3769 32.3415 41.0858 32.3415 40.8008C32.3415 34.3289 32.3385 27.857 32.3476 21.382C32.3538 20.9683 32.2281 20.6741 31.937 20.3769Z" fill="white"/>
<path d="M49.1616 14.1501C48.797 14.1041 48.4446 14.1838 48.1014 14.2849C43.7316 15.5719 39.3618 16.8528 34.9951 18.1613C33.6346 18.5688 33.0493 19.482 33.0677 20.8978C33.1535 27.1092 33.1718 33.3206 33.1014 39.5351C33.0922 40.5035 33.1106 41.4902 32.6141 42.4831C32.9512 42.4003 33.2025 42.3482 33.4476 42.2808C37.1279 41.2573 40.7224 39.9672 44.3261 38.7108C45.8583 38.1776 47.3904 37.6414 48.9073 37.0714C49.9921 36.6638 50.2372 36.2655 50.2219 35.147C50.2188 34.9785 50.2219 34.813 50.2219 34.6444C50.225 28.528 50.225 22.4115 50.225 16.292C50.225 15.9335 50.2372 15.575 50.2066 15.2164C50.1576 14.5791 49.799 14.2328 49.1616 14.1501Z" fill="white"/>
<path d="M16.949 29.8243C12.6375 25.4239 8.33512 21.0143 4.0297 16.6078C3.52715 16.096 3.00008 15.6118 2.44237 15.1614C1.93675 14.7538 1.40355 14.4535 0.74165 14.7814C0.0828144 15.1062 -0.00298742 15.6915 7.6929e-05 16.3534C0.0153987 20.1502 0.00620563 23.9469 0.00620563 27.7436C0.00620563 31.5894 0.00314128 35.4321 0.00926999 39.2778C0.00926999 40.2339 0.398443 40.62 1.34226 40.6568C2.02255 40.6813 2.66606 40.5005 3.30345 40.2983C5.39334 39.6272 7.48016 38.953 9.56699 38.2819C11.6998 37.5955 13.8203 36.8631 15.9745 36.2503C16.8632 35.9959 17.378 35.5363 17.3688 34.4791C17.3566 33.2625 17.3535 32.0429 17.375 30.8263C17.3811 30.4096 17.234 30.1154 16.949 29.8243Z" fill="white"/>
<path d="M71.8987 35.4013C71.8987 29.3339 71.8987 23.2634 71.8987 17.196C71.8987 17.0519 71.8895 16.9079 71.8987 16.767C71.9201 16.485 71.7884 16.3931 71.5187 16.3992C70.9702 16.4115 70.4186 16.4023 69.8701 16.4023C69.248 16.4023 68.629 16.4084 68.0069 16.4023C67.771 16.3992 67.6454 16.485 67.6607 16.7363C67.6699 16.9018 67.6668 17.0703 67.6699 17.2389C67.7281 21.4432 67.7863 25.6474 67.8384 29.8517C67.8415 30.0203 67.9089 30.2164 67.7403 30.4064C67.6178 30.2072 67.5136 30.0509 67.4217 29.8885C66.5698 28.3962 65.7179 26.9038 64.866 25.4084C63.2572 22.5892 61.6392 19.7731 60.0519 16.9416C59.819 16.5279 59.5708 16.3839 59.1019 16.3931C57.7873 16.4268 56.4727 16.4054 55.1612 16.4054C54.4012 16.4054 54.4411 16.338 54.4411 17.1592C54.4411 17.1837 54.4411 17.2082 54.4411 17.2297C54.4411 23.2971 54.4411 29.3676 54.4411 35.435C54.4411 35.579 54.4472 35.723 54.4411 35.864C54.4319 36.0908 54.5054 36.2256 54.7628 36.2225C55.9824 36.2164 57.199 36.2195 58.4186 36.2195C58.63 36.2195 58.722 36.1245 58.7128 35.9161C58.7066 35.7506 58.7097 35.5821 58.7066 35.4135C58.6545 31.0193 58.6024 26.6219 58.5504 22.2276C58.5473 22.0009 58.5504 21.771 58.5504 21.5412C58.7863 21.5657 58.8169 21.7251 58.8813 21.8385C59.6505 23.1868 60.4165 24.5351 61.1857 25.8834C63.0519 29.1623 64.915 32.4411 66.7812 35.72C66.9314 35.9835 67.0417 36.2409 67.4584 36.2317C68.7945 36.198 70.1336 36.2072 71.4727 36.2256C71.8405 36.2317 71.9324 36.0785 71.8987 35.7568C71.8895 35.6403 71.8987 35.5208 71.8987 35.4013Z" fill="white"/>
<path d="M118.551 26.2972C118.551 25.1021 118.551 23.9101 118.551 22.715C118.551 20.7569 118.544 18.7987 118.551 16.8437C118.551 16.571 118.535 16.3902 118.183 16.3932C117.037 16.4085 115.891 16.4024 114.745 16.3963C114.475 16.3932 114.343 16.4913 114.362 16.7732C114.371 16.9387 114.362 17.1072 114.362 17.2758C114.362 19.4729 114.365 21.67 114.359 23.8672C114.359 24.4249 114.346 24.4341 113.816 24.4372C111.619 24.4433 109.422 24.4341 107.225 24.4463C106.875 24.4494 106.673 24.3667 106.722 23.9714C106.741 23.8304 106.725 23.6864 106.725 23.5423C106.725 21.3697 106.728 19.1971 106.725 17.0214C106.725 16.4085 106.719 16.4055 106.097 16.4024C105.19 16.3994 104.283 16.3994 103.376 16.4024C102.457 16.4055 102.561 16.3166 102.561 17.193C102.558 21.9213 102.561 26.6496 102.561 31.381C102.561 32.8151 102.558 34.2461 102.564 35.6803C102.567 36.2104 102.573 36.2196 103.125 36.2226C104.081 36.2288 105.034 36.2257 105.99 36.2226C106.799 36.2196 106.731 36.2993 106.731 35.5056C106.734 33.1644 106.728 30.8232 106.734 28.4851C106.734 27.9428 106.747 27.9336 107.292 27.9336C109.394 27.9305 111.496 27.9305 113.595 27.9336C114.389 27.9336 114.368 27.8478 114.365 28.7119C114.365 31.0286 114.362 33.3452 114.365 35.6619C114.365 36.2135 114.374 36.2226 114.91 36.2257C115.937 36.2318 116.963 36.2318 117.99 36.2257C118.535 36.2226 118.535 36.2165 118.554 35.6894C118.557 35.5454 118.554 35.4014 118.554 35.2604C118.547 32.2666 118.547 29.2819 118.551 26.2972C118.547 26.2972 118.551 26.2972 118.551 26.2972Z" fill="white"/>
<path d="M137.67 33.3789C137.667 32.7721 137.663 32.766 137.032 32.766C134.93 32.763 132.828 32.763 130.726 32.766C130.03 32.766 129.347 32.6833 128.676 32.4872C127.56 32.1623 126.828 31.4514 126.451 30.3513C126.264 29.8028 126.197 29.2359 126.126 28.669C126.034 27.909 126.037 27.906 126.788 27.906C128.483 27.9029 130.18 27.906 131.875 27.906C133.548 27.906 135.218 27.906 136.891 27.906C137.035 27.906 137.179 27.8998 137.32 27.906C137.55 27.9152 137.673 27.8324 137.67 27.5781C137.663 26.6465 137.663 25.7149 137.67 24.7834C137.673 24.5321 137.553 24.4432 137.32 24.4524C137.155 24.4586 136.986 24.4524 136.818 24.4524C133.545 24.4494 130.275 24.4524 127.003 24.4463C125.976 24.4463 126.105 24.5505 126.221 23.5668C126.469 21.4984 127.628 20.3002 129.672 19.9264C130.098 19.8498 130.527 19.8528 130.956 19.8528C132.984 19.8498 135.016 19.8528 137.044 19.8498C137.657 19.8498 137.66 19.8436 137.663 19.2124C137.667 18.4708 137.667 17.7323 137.663 16.9907C137.66 16.4085 137.654 16.3993 137.078 16.3993C134.811 16.3962 132.54 16.3993 130.272 16.3993C129.601 16.3993 128.936 16.4637 128.277 16.574C124.962 17.1286 122.78 18.9672 121.913 22.2553C121.275 24.67 121.193 27.1154 121.646 29.5668C122.348 33.3544 125.014 36.0142 129.08 36.1674C131.798 36.2686 134.526 36.2012 137.247 36.2257C137.624 36.2287 137.673 36.0541 137.67 35.7446C137.66 34.957 137.673 34.1695 137.67 33.3789Z" fill="white"/>
<path d="M171.689 33.376C171.692 32.7049 171.686 32.7662 171.052 32.7662C168.974 32.7662 166.897 32.7631 164.819 32.7692C164.074 32.7723 163.342 32.6895 162.631 32.4659C161.58 32.1349 160.869 31.4424 160.514 30.3974C160.296 29.7631 160.18 29.1042 160.17 28.4301C160.164 27.9183 160.164 27.9092 160.67 27.9061C162.414 27.9 164.157 27.903 165.901 27.903C166.354 27.903 166.808 27.903 167.261 27.903C168.597 27.903 169.937 27.9 171.273 27.903C171.502 27.903 171.695 27.9 171.692 27.5782C171.68 26.6466 171.686 25.7151 171.689 24.7835C171.689 24.5384 171.588 24.4372 171.346 24.4526C171.202 24.4618 171.061 24.4526 170.917 24.4526C167.837 24.4495 164.755 24.4495 161.675 24.4495C159.956 24.4495 159.956 24.4495 160.44 22.7825C160.468 22.6906 160.486 22.5956 160.517 22.5067C160.973 21.1798 161.883 20.3555 163.244 20.0215C163.805 19.8836 164.375 19.8499 164.951 19.8499C166.958 19.853 168.962 19.853 170.969 19.8499C171.732 19.8499 171.692 19.9296 171.692 19.1022C171.692 18.3851 171.695 17.6681 171.692 16.951C171.689 16.4086 171.683 16.3994 171.147 16.3994C168.855 16.3964 166.563 16.4025 164.267 16.3994C163.596 16.3994 162.931 16.4699 162.273 16.5833C158.917 17.1533 156.757 19.0624 155.926 22.378C155.313 24.8172 155.252 27.2902 155.742 29.7631C156.429 33.2227 158.951 36.0082 163.118 36.1645C165.836 36.2656 168.564 36.2013 171.285 36.2227C171.594 36.2258 171.702 36.1216 171.699 35.8121C171.677 35.0001 171.686 34.188 171.689 33.376Z" fill="white"/>
<path d="M99.5085 33.4403C99.5055 32.7753 99.5024 32.7692 98.8527 32.7692C96.8701 32.7661 94.8875 32.7692 92.9048 32.7661C92.5708 32.7661 92.2337 32.7692 91.9028 32.7447C89.5678 32.5761 88.3665 31.5189 87.959 29.2421C87.7016 27.7988 87.72 26.3432 87.864 24.8877C87.9528 23.9592 88.1214 23.046 88.4952 22.1818C88.9947 21.0327 89.8374 20.2911 91.054 19.9755C91.6607 19.8192 92.2766 19.7733 92.8987 19.7733C94.9059 19.7702 96.9099 19.7763 98.9171 19.7702C99.4993 19.7702 99.5024 19.7579 99.5085 19.1696C99.5146 18.428 99.5146 17.6895 99.5085 16.9479C99.5024 16.4117 99.4963 16.4025 98.9447 16.4025C96.6035 16.3994 94.2623 16.4055 91.9212 16.4055C91.3206 16.4055 90.7291 16.476 90.1408 16.571C86.8895 17.0981 84.7077 18.8631 83.7761 22.0776C83.5034 23.0215 83.3502 23.9867 83.2674 24.9643C83.1173 26.7845 83.1602 28.5955 83.6535 30.3667C84.4013 33.0633 86.0529 34.9387 88.7526 35.8151C89.5739 36.0817 90.4319 36.1829 91.293 36.1982C92.5095 36.2196 93.7291 36.2043 94.9457 36.2043C94.9457 36.2104 94.9457 36.2166 94.9457 36.2196C96.3063 36.2196 97.6699 36.2104 99.0305 36.2258C99.4043 36.2319 99.53 36.1032 99.5177 35.7324C99.4932 34.9694 99.5116 34.2033 99.5085 33.4403Z" fill="white"/>
<path d="M154.459 33.5659C154.456 32.9254 154.453 32.9224 153.779 32.9224C152.225 32.9193 150.674 32.9193 149.121 32.9162C148.499 32.9162 147.88 32.8549 147.285 32.6588C146.01 32.2421 145.235 31.4147 145.106 30.0296C145.045 29.3861 145.008 28.7457 145.008 28.0991C145.008 25.3994 145.008 22.6997 145.008 20.0031C145.008 18.9765 145.011 17.9499 145.005 16.9203C145.002 16.4116 144.993 16.4024 144.5 16.3994C143.473 16.3932 142.447 16.3932 141.42 16.3994C140.85 16.4024 140.844 16.4086 140.841 16.9969C140.838 19.05 140.841 21.1062 140.841 23.1593C140.841 24.6884 140.844 26.2176 140.841 27.7467C140.838 28.6537 140.884 29.5577 140.97 30.4647C141.258 33.572 143.777 35.6803 145.925 35.9775C146.492 36.0572 147.058 36.1706 147.628 36.1798C149.755 36.2135 151.879 36.1981 154.005 36.2257C154.413 36.2319 154.477 36.0572 154.468 35.714C154.447 35 154.462 34.2829 154.459 33.5659Z" fill="white"/>
<path d="M79.6578 16.3993C78.7018 16.3993 77.7457 16.3962 76.7927 16.3993C75.9071 16.4054 75.9806 16.2982 75.9806 17.1991C75.9776 23.2665 75.9806 29.337 75.9806 35.4044C75.9806 35.4994 75.9776 35.5944 75.9806 35.6925C75.9929 36.2073 75.9929 36.2134 76.4862 36.2226C77.0102 36.2318 77.5373 36.2257 78.0644 36.2257C78.7079 36.2257 79.3545 36.2195 79.998 36.2257C80.2339 36.2287 80.3565 36.146 80.3412 35.8947C80.332 35.7293 80.3412 35.5607 80.3412 35.3922C80.3412 32.383 80.3412 29.3707 80.3412 26.3615C80.3412 23.2788 80.3412 20.1991 80.3412 17.1164C80.3381 16.3779 80.4209 16.3993 79.6578 16.3993Z" fill="white"/>
<path d="M59.2281 13.6782C59.5744 13.7364 59.9666 13.813 60.2761 13.6383C60.4937 13.5157 60.3497 13.197 60.3558 12.9672C60.3619 12.7282 60.3252 12.4923 60.3252 12.2532C60.3221 11.2696 60.3221 10.2829 60.3221 9.14292C60.4385 9.47693 60.5059 9.66998 60.5703 9.8661C60.9411 10.9999 61.3211 12.1276 61.6704 13.2675C61.7715 13.5924 61.9094 13.767 62.268 13.7149C62.4089 13.6935 62.556 13.6965 62.697 13.7149C63.0371 13.7578 63.2056 13.6291 63.3037 13.2828C63.5703 12.3421 63.8737 11.4136 64.1832 10.4851C64.3149 10.0867 64.3793 9.66079 64.6765 9.20726C64.6765 9.58418 64.6827 9.85997 64.6765 10.1327C64.649 11.1838 64.6244 12.2318 64.5846 13.2828C64.5723 13.574 64.649 13.7486 64.9768 13.7119C65.0228 13.7057 65.0718 13.7119 65.1209 13.7119C65.8318 13.7272 65.8349 13.7272 65.8349 13.0346C65.8379 11.5055 65.8441 9.97948 65.8318 8.45037C65.8257 7.37785 65.9942 7.50655 64.8818 7.50655C63.7817 7.50655 64.0361 7.38397 63.7174 8.34005C63.3068 9.57498 62.9207 10.8191 62.5192 12.0755C62.3354 11.9345 62.3078 11.766 62.2588 11.6066C61.9523 10.6536 61.652 9.70063 61.3333 8.75068C61.1985 8.34925 61.2138 7.80992 60.8737 7.58622C60.5121 7.3472 59.9911 7.54025 59.5407 7.50042C59.1975 7.46977 59.078 7.60155 59.0902 7.94475C59.1117 8.58827 59.0963 9.23484 59.0963 9.87836C59.0963 10.9999 59.0933 12.1215 59.0994 13.243C59.0963 13.3993 59.0289 13.6444 59.2281 13.6782Z" fill="white"/>
<path d="M74.3502 10.5066C74.3502 10.0531 74.3686 9.59958 74.3471 9.14606C74.295 8.04596 73.5351 7.22471 72.435 7.0715C71.865 6.99182 71.292 6.98876 70.722 7.07762C69.6341 7.2431 68.8772 8.07967 68.8466 9.1859C68.8221 10.0439 68.8251 10.905 68.8435 11.7661C68.8681 12.857 69.5483 13.6721 70.6178 13.8897C71.2766 14.0214 71.9508 14.0245 72.6096 13.8836C73.6454 13.6599 74.3042 12.8601 74.3471 11.8029C74.3655 11.3677 74.3502 10.9356 74.3502 10.5066ZM73.0264 11.7324C73.0141 12.2686 72.7383 12.5812 72.2082 12.6364C71.8098 12.6793 71.3961 12.6793 70.9978 12.6394C70.4462 12.5812 70.1765 12.2533 70.1551 11.6772C70.1398 11.2727 70.152 10.8682 70.152 10.4637C70.152 10.0838 70.1428 9.70071 70.1551 9.32073C70.1765 8.6956 70.4462 8.39223 71.0529 8.35239C71.4329 8.32788 71.816 8.32482 72.1929 8.35546C72.7261 8.39836 73.0141 8.6956 73.0264 9.23493C73.0478 10.0654 73.0478 10.8989 73.0264 11.7324Z" fill="white"/>
<path d="M33.7052 9.38814C33.8216 9.3575 33.9841 9.3146 34.1434 9.26864C38.9943 7.84984 43.8451 6.42798 48.6991 5.00918C48.791 4.9816 48.886 4.96628 48.9749 4.93257C49.4069 4.77016 49.5908 4.48824 49.5019 4.12665C49.41 3.7436 49.076 3.57813 48.5888 3.68539C48.4509 3.71603 48.316 3.76812 48.1781 3.80796C43.4192 5.19918 38.6603 6.59039 33.9044 7.98161C33.6991 8.04289 33.4876 8.10111 33.3068 8.20836C33.0249 8.3769 32.9544 8.65576 33.0586 8.95913C33.1475 9.23186 33.3651 9.36976 33.7052 9.38814Z" fill="white"/>
<path d="M49.0509 10.577C48.864 10.6077 48.6832 10.6751 48.4993 10.7272C43.7649 12.1123 39.0274 13.4943 34.293 14.8794C34.0877 14.9407 33.8763 14.9958 33.6863 15.0908C33.3676 15.2502 33.2297 15.5719 33.3431 15.8661C33.4595 16.1633 33.6832 16.3196 34.103 16.289C34.244 16.2522 34.4769 16.194 34.7036 16.1266C39.4411 14.7415 44.1786 13.3564 48.913 11.9713C49.0969 11.9192 49.2838 11.8702 49.4524 11.7844C49.7649 11.6281 49.8844 11.3186 49.7833 11.003C49.6944 10.7088 49.3911 10.5219 49.0509 10.577Z" fill="white"/>
<path d="M49.1524 6.94289C48.9409 6.95821 48.7326 7.02563 48.5273 7.08691C43.7438 8.48119 38.9634 9.87547 34.183 11.2728C33.9992 11.3249 33.8092 11.3739 33.6468 11.4659C33.3648 11.6222 33.2515 11.8826 33.3403 12.1952C33.4292 12.5047 33.6651 12.6518 33.9961 12.6763C34.1432 12.6365 34.3056 12.5966 34.4649 12.5507C39.3158 11.1319 44.1667 9.71 49.0176 8.28814C49.1769 8.24218 49.3393 8.19621 49.4864 8.12267C49.7867 7.97251 49.8664 7.69979 49.7898 7.39642C49.7132 7.07772 49.4772 6.91837 49.1524 6.94289Z" fill="white"/>
<path d="M33.7051 5.73539C33.8553 5.69862 34.0422 5.66185 34.2261 5.60669C39.031 4.20016 43.8328 2.79055 48.6377 1.38095C48.8216 1.32886 49.0085 1.27983 49.177 1.19403C49.4681 1.04388 49.5693 0.786465 49.4957 0.470837C49.4252 0.164402 49.1219 -0.0347779 48.7879 0.00505865C48.6224 0.0234448 48.463 0.0785982 48.3006 0.124564C43.4988 1.5311 38.6969 2.94071 33.8951 4.35031C33.7112 4.4024 33.5243 4.45143 33.3558 4.53417C33.0616 4.68126 32.9574 4.94173 33.034 5.2543C33.1137 5.57299 33.3497 5.71701 33.7051 5.73539Z" fill="white"/>
<path d="M81.3189 10.6414C81.4323 10.5403 81.4844 10.4943 81.5396 10.4453C82.1157 9.93659 82.1708 9.28694 81.9808 8.60972C81.7878 7.92024 81.2454 7.65671 80.5743 7.60156C80.4333 7.5893 80.2893 7.57091 80.1483 7.56784C79.3393 7.56478 78.5273 7.55865 77.7183 7.56784C77.2249 7.57397 77.2158 7.58317 77.2127 8.10411C77.2066 9.3421 77.2096 10.5832 77.2096 11.8212C77.2096 12.3207 77.2127 12.8232 77.2096 13.3227C77.2096 13.5311 77.2341 13.7057 77.5038 13.7027C78.6008 13.6935 79.6979 13.7333 80.7888 13.6598C81.5947 13.6046 82.0023 13.0806 82.0728 12.2839C82.131 11.6189 81.9532 11.0643 81.3189 10.6414ZM78.8062 8.6802C79.2352 8.70166 79.6672 8.67101 80.0962 8.69246C80.6111 8.72004 80.8011 8.92842 80.798 9.40033C80.7949 9.86918 80.6049 10.0684 80.0901 10.1051C79.8756 10.1204 79.6611 10.1082 79.4466 10.1082C79.4466 10.1082 79.4466 10.1082 79.4466 10.1113C79.3976 10.1113 79.3516 10.1113 79.3026 10.1113C78.2913 10.0867 78.3771 10.3196 78.3588 9.14598C78.3526 8.80584 78.4568 8.66182 78.8062 8.6802ZM80.2066 12.6087C79.9246 12.6424 79.6366 12.6148 79.3516 12.6148C78.2852 12.6118 78.3618 12.8784 78.3618 11.576C78.3618 11.2972 78.4844 11.193 78.7479 11.1991C79.2229 11.2083 79.7009 11.1838 80.1759 11.2175C80.6417 11.2481 80.8133 11.4565 80.8194 11.9008C80.8286 12.3482 80.6693 12.5535 80.2066 12.6087Z" fill="white"/>
<path d="M109.998 13.7088C110.022 13.7088 110.047 13.7057 110.068 13.7088C110.335 13.7363 110.464 13.6322 110.451 13.3472C110.436 12.9672 110.448 12.5842 110.448 12.2042C110.448 11.1531 110.448 11.1531 111.481 11.1592C112.143 11.1623 112.367 11.3462 112.517 11.9958C112.615 12.4187 112.59 12.8507 112.578 13.2767C112.569 13.6352 112.716 13.7455 113.044 13.7118C113.185 13.6965 113.329 13.7057 113.473 13.7088C113.635 13.7088 113.761 13.6567 113.755 13.4728C113.73 12.4861 113.929 11.4473 113.078 10.6597C113.206 10.5126 113.326 10.3962 113.421 10.2614C113.896 9.59947 113.92 8.87935 113.595 8.16229C113.289 7.4912 112.676 7.31959 111.99 7.32572C111.251 7.33185 110.513 7.32266 109.774 7.32879C109.226 7.33491 109.213 7.34105 109.21 7.8865C109.204 9.57802 109.207 11.2695 109.207 12.9611C109.21 13.7425 109.213 13.7425 109.998 13.7088ZM110.448 9.30835C110.464 8.2726 110.31 8.4105 111.362 8.39824C111.481 8.39824 111.601 8.39211 111.72 8.39824C112.333 8.42889 112.587 8.68629 112.603 9.28078C112.618 9.88445 112.391 10.148 111.778 10.2277C111.662 10.243 111.539 10.246 111.423 10.246C110.243 10.246 110.473 10.2889 110.448 9.30835Z" fill="white"/>
<path d="M103.882 12.2103C104.602 12.2103 104.602 12.2134 104.829 12.8783C105.117 13.7363 105.117 13.7394 106.006 13.7057C106.098 13.7026 106.19 13.6812 106.275 13.6689C106.285 13.6015 106.309 13.5494 106.294 13.5096C105.583 11.5606 104.869 9.61171 104.155 7.66278C104.124 7.57392 104.115 7.46054 104.014 7.42683C103.665 7.31039 103.303 7.35328 102.954 7.39312C102.687 7.42376 102.693 7.71181 102.623 7.9018C101.97 9.66993 101.326 11.4411 100.689 13.2123C100.637 13.3533 100.499 13.4973 100.628 13.6689C101.697 13.7578 101.697 13.7578 102.022 12.7925C102.044 12.7251 102.083 12.6607 102.096 12.5903C102.142 12.3022 102.313 12.198 102.595 12.2072C103.021 12.2225 103.45 12.2103 103.882 12.2103ZM102.702 10.7149C102.905 10.0928 103.113 9.47382 103.355 8.74144C103.76 9.52285 103.897 10.2614 104.219 11.0183C103.708 11.1255 103.328 11.0734 102.948 11.0826C102.672 11.0949 102.632 10.9355 102.702 10.7149Z" fill="white"/>
<path d="M122.553 12.8722C122.583 12.7803 122.617 12.6914 122.635 12.5995C122.694 12.3176 122.865 12.2164 123.147 12.2287C123.576 12.2471 124.005 12.2318 124.434 12.2318C125.072 12.2348 125.072 12.2348 125.274 12.8354C125.58 13.7394 125.58 13.7394 126.555 13.6996C126.616 13.6965 126.677 13.6597 126.785 13.626C126.089 11.7139 125.381 9.82012 124.722 7.91409C124.566 7.4575 124.284 7.44831 123.91 7.43912C123.533 7.42993 123.313 7.51572 123.175 7.92022C122.562 9.69754 121.909 11.4595 121.266 13.2246C121.217 13.3594 121.161 13.4912 121.201 13.6383C122.246 13.8068 122.246 13.8068 122.553 12.8722ZM123.873 8.80889C124.26 9.57804 124.413 10.3135 124.713 11.0979C124.122 11.1133 123.674 11.1409 123.184 11.0704C123.331 10.3135 123.61 9.62094 123.873 8.80889Z" fill="white"/>
<path d="M90.8001 13.7088C91.6581 13.7241 92.5162 13.7027 93.3772 13.7149C93.6684 13.718 93.8369 13.6445 93.8032 13.3166C93.7909 13.2001 93.7879 13.0775 93.8032 12.958C93.8461 12.6056 93.6837 12.4953 93.3497 12.5106C92.9207 12.529 92.4916 12.5137 92.0626 12.5137C90.9411 12.5137 90.9411 12.5137 90.9411 11.3768C90.9411 10.2308 90.9441 9.08776 90.938 7.94169C90.935 7.40543 90.9258 7.40543 90.3772 7.39624C90.3282 7.39624 90.2822 7.39624 90.2332 7.39624C89.7307 7.4085 89.7184 7.4085 89.7123 7.91718C89.7031 8.79972 89.7092 9.68225 89.7092 10.5648C89.7092 10.8988 89.7123 11.2328 89.7092 11.5668C89.7061 11.9008 89.6939 12.2349 89.6939 12.5689C89.6939 13.9693 89.5254 13.6874 90.8001 13.7088Z" fill="white"/>
<path d="M117.037 10.5433C117.037 11.4749 117.043 12.4034 117.034 13.335C117.03 13.6046 117.122 13.7364 117.404 13.7149C117.524 13.7057 117.643 13.7149 117.763 13.7119C118.247 13.7027 118.259 13.7027 118.262 13.1879C118.268 11.9254 118.265 10.6598 118.265 9.39727C118.265 8.87327 118.259 8.34927 118.268 7.8222C118.275 7.53415 118.192 7.35948 117.864 7.39625C117.748 7.40851 117.625 7.41157 117.505 7.39625C117.113 7.34415 117.024 7.54027 117.03 7.89267C117.049 8.77827 117.037 9.6608 117.037 10.5433Z" fill="white"/>
<path d="M96.5151 13.0501C96.5182 13.7212 96.5182 13.7212 97.1647 13.712C97.6918 13.7059 97.6979 13.7059 97.701 13.1512C97.7041 11.8152 97.701 10.4791 97.701 9.14306C97.701 8.68954 97.6918 8.23602 97.7041 7.78249C97.7102 7.51589 97.6213 7.37186 97.3364 7.40251C97.2904 7.40863 97.2414 7.40251 97.1923 7.40251C96.5182 7.38718 96.5151 7.38719 96.512 8.0399C96.509 8.87646 96.512 9.70997 96.512 10.5465C96.5151 11.38 96.512 12.2135 96.5151 13.0501Z" fill="white"/>
<path d="M85.3485 7.9999C85.3332 8.37988 85.3424 8.76293 85.3424 9.14597C85.3424 10.5311 85.3486 11.9161 85.3363 13.2982C85.3332 13.6046 85.4313 13.7456 85.7438 13.7119C85.8388 13.7027 85.9338 13.7119 86.0288 13.7088C86.5253 13.6965 86.5314 13.6965 86.5375 13.1879C86.5436 12.3298 86.5406 11.4687 86.5406 10.6107C86.5406 9.70368 86.5436 8.79664 86.5375 7.88959C86.5375 7.73025 86.5988 7.50348 86.4119 7.44219C86.1177 7.3472 85.7868 7.3472 85.4956 7.433C85.2321 7.51267 85.3577 7.80379 85.3485 7.9999Z" fill="white"/>
<path d="M54.656 10.1697C54.656 11.1717 54.6529 12.1738 54.656 13.1758C54.659 13.7059 54.6652 13.7059 55.2167 13.7121C55.2872 13.7121 55.3608 13.7059 55.4312 13.7121C55.7377 13.7458 55.8511 13.6232 55.8449 13.3076C55.8296 12.4005 55.8388 11.4935 55.8388 10.5895C55.8388 9.68244 55.8235 8.77539 55.8449 7.8714C55.8541 7.48836 55.7101 7.35353 55.3485 7.3995C55.2535 7.41176 55.1555 7.41176 55.0635 7.3995C54.754 7.36579 54.6437 7.50062 54.6498 7.80705C54.6652 8.59459 54.656 9.38213 54.656 10.1697Z" fill="white"/>
<path d="M104.51 5.63428C103.462 5.46574 103.407 5.50558 102.895 6.78035C103.732 6.77728 103.989 6.02039 104.51 5.63428Z" fill="white"/>
<path d="M195.314 39.0399H195.303V39.0492C195.307 39.0457 195.311 39.0422 195.314 39.0399Z" fill="#F9FAFC"/>
<path d="M209.075 21.9349C209.064 21.8869 209.055 21.8402 209.044 21.7911C209.044 21.7911 208.195 14.6304 197.959 14.4714L198.124 14.0681L198.289 13.6647C198.517 13.1328 198.743 12.5997 198.967 12.0654C199.214 11.4704 199.454 10.873 199.701 10.2779C199.813 10.0055 199.898 9.9634 200.186 10.0347C200.486 10.1095 200.787 10.189 201.085 10.2709C202.148 10.5631 203.208 10.8636 204.272 11.1489C205.301 11.4248 206.341 11.6609 207.364 11.9579C208.65 12.3308 209.955 12.6301 211.239 13.01C211.378 13.051 211.471 13.0603 211.541 13.0276L211.589 13.0404L211.61 12.9703C211.649 12.9235 211.68 12.8557 211.71 12.7575C211.82 12.4033 211.912 12.042 212.008 11.6831C212.045 11.5463 212.08 11.4084 212.118 11.2716L213.763 5.77339L213.659 5.74416L205.404 3.42937L196.738 1L196.682 1.13561L189.153 19.3512L189.925 20.3788L189.949 20.4115C189.949 20.4115 189.999 20.3718 190.09 20.304C190.094 20.3005 190.1 20.2981 190.105 20.2935C190.464 20.0246 190.85 19.8013 191.252 19.6072C191.778 19.3523 192.317 19.1244 192.889 19.0028C193.793 18.8087 194.705 18.7795 195.625 18.9023C196.344 18.9981 197.04 19.17 197.704 19.4517C198.677 19.8644 199.531 20.4373 200.186 21.2954C200.905 22.2377 201.353 23.2887 201.45 24.4624C201.596 26.2278 201.216 27.8902 200.323 29.424C199.303 31.1753 197.765 32.072 195.743 32.1293C194.702 32.1597 193.692 31.9563 192.717 31.6102C191.114 31.0409 189.836 30.025 188.833 28.6606C188.239 27.854 187.808 26.9643 187.533 25.9998C187.505 25.9004 187.463 25.8151 187.408 25.7391C187.407 25.7309 187.404 25.7239 187.403 25.7157L187.384 25.7063C187.325 25.6304 187.252 25.5649 187.164 25.5076C186.98 25.3907 186.864 25.3521 186.775 25.4012L186.766 25.3965L186.761 25.4082C186.697 25.4515 186.646 25.5438 186.594 25.6982C186.416 26.2278 186.242 26.7585 186.062 27.2881C185.676 28.4268 185.287 29.5655 184.9 30.7042C184.566 31.6886 184.296 32.6952 183.876 33.6491C183.801 33.8198 183.812 33.9812 183.952 34.1296C184.216 34.409 184.459 34.7083 184.731 34.9819C184.887 35.1397 185.046 35.294 185.208 35.4472C185.839 36.0446 186.51 36.5952 187.259 37.0512C187.387 37.1283 187.497 37.2359 187.628 37.3014C187.81 37.3926 187.911 37.3259 187.927 37.1248C187.933 37.0512 187.926 36.9764 187.926 36.9015C187.926 35.8704 187.926 34.8393 187.928 33.8093C187.928 33.7649 187.932 33.7263 187.937 33.6912V33.4901L188.13 33.441C188.168 33.4258 188.211 33.4118 188.261 33.4001C188.36 33.3779 188.458 33.3545 188.556 33.3323C188.71 33.2961 188.866 33.2587 189.019 33.2189C189.184 33.1756 189.349 33.1324 189.512 33.088C189.861 32.9956 190.21 32.9021 190.56 32.8121C190.598 32.8015 190.632 32.7969 190.663 32.7957L190.912 32.7326V38.7545C190.961 38.8785 191.067 38.9404 191.285 39.0152C191.493 39.0866 191.702 39.1544 191.911 39.2222C192.603 39.3929 193.341 39.5191 194.122 39.5858V39.0421H195.302V35.0859H195.772H196.05V34.9655V34.4792H196.238H201.201H201.236V34.5283V35.0859H201.817H201.984V36.8419C202.018 36.9869 202.11 37.0255 202.331 37.0266C203.064 37.0301 203.797 37.0255 204.53 37.0278C204.715 37.0278 204.871 36.967 204.998 36.8361C205.309 36.5146 205.643 36.2118 205.924 35.8657C207.157 34.3424 208.041 32.6332 208.602 30.7556C208.641 30.6247 208.697 30.4996 208.748 30.3733C208.767 30.3277 208.794 30.2822 208.851 30.281C208.87 30.281 208.885 30.2857 208.898 30.2927C208.903 30.295 208.906 30.2997 208.91 30.302C208.681 29.0733 208.56 27.806 208.56 26.5118C208.564 24.9359 208.74 23.4056 209.075 21.9349Z" fill="white"/>
<path d="M211.172 36.5755C211.226 36.676 211.275 36.7555 211.327 36.8187C211.155 36.5229 210.992 36.2224 210.835 35.9185C210.944 36.1382 211.055 36.358 211.172 36.5755Z" fill="#F9FAFC"/>
<path d="M230.541 24.3071C230.593 24.5982 230.762 24.7654 231.055 24.8145C231.475 24.8846 231.894 24.8776 232.312 24.8075C232.814 24.7233 232.975 24.5643 233.025 24.0616C233.063 23.6922 233.069 23.3204 233.089 22.9498C233.085 22.9498 233.08 22.9498 233.077 22.9486C233.077 22.8738 233.077 22.8002 233.077 22.7253C233.076 22.3419 233.091 21.9572 233.023 21.5761C232.972 21.2827 232.844 21.0804 232.516 21.0243C232.046 20.9436 231.577 20.9355 231.109 20.9939C230.728 21.0418 230.593 21.1658 230.541 21.5679C230.428 22.4424 230.453 23.3216 230.515 24.1984C230.519 24.2358 230.534 24.2709 230.541 24.3071Z" fill="white"/>
<path d="M221.45 21.1224C221.109 22.0133 220.756 22.8831 220.48 23.8008C221.158 23.8008 221.784 23.8008 222.453 23.8008C222.143 22.8784 221.829 21.9946 221.45 21.1224Z" fill="white"/>
<path d="M212.093 37.0114C212.326 36.9985 212.393 36.9167 212.402 36.6793C212.409 36.4689 212.402 36.2573 212.402 36.0457C212.4 35.7102 212.404 35.3746 212.399 35.0391C212.395 34.7047 212.603 34.3762 212.413 34.0349C212.374 33.9635 212.433 33.8653 212.475 33.7894C212.541 33.6701 212.526 33.5602 212.475 33.4351C212.413 33.2785 212.404 33.2048 212.474 33.1347C212.508 33.0996 212.559 33.0669 212.635 33.0248C213.221 32.7021 213.814 32.3911 214.397 32.0638C214.433 32.0439 214.469 32.0275 214.504 32.0147L214.578 31.9726L214.654 31.9305L214.747 31.9831L216.901 33.2083L217.394 33.4877L218.424 34.0734C218.487 34.1108 218.55 34.1471 218.614 34.1822C218.712 34.2359 218.813 34.2862 218.918 34.3306C219.009 34.368 219.079 34.4183 219.136 34.4791C219.155 34.5002 219.172 34.5235 219.188 34.5469C219.216 34.5902 219.237 34.6393 219.252 34.6931C219.275 34.7702 219.285 34.8556 219.284 34.9526C219.266 36.0702 219.277 37.1891 219.277 38.3067C219.276 38.3067 219.275 38.3067 219.275 38.3067C219.275 39.0023 219.275 39.6979 219.275 40.3935C219.275 40.8658 219.269 41.3382 219.276 41.8093C219.279 42.0595 219.318 42.1051 219.551 42.1121C219.948 42.1226 220.346 42.1156 220.743 42.1156C220.895 42.1156 220.971 42.0361 220.979 41.8876C220.984 41.8128 220.985 41.7391 220.985 41.6643C220.985 40.9173 220.984 40.1702 220.984 39.422C220.983 38.4821 220.983 37.5421 220.982 36.6022C220.982 36.3765 220.982 36.1509 220.982 35.9253C220.982 35.7756 220.985 35.6739 221.007 35.6038V35.4389H223.331H223.529V35.3349V34.762V31.1262H230.452V31.4816C230.452 31.4921 230.453 31.5003 230.453 31.512C230.455 31.5494 230.452 31.5868 230.452 31.6242C230.452 31.6371 230.452 31.6488 230.452 31.6616C230.451 33.0458 230.45 34.43 230.45 35.8142C230.45 36.3181 230.449 36.822 230.449 37.3258C230.449 37.3691 230.45 37.4088 230.453 37.4439V37.7572H233.625V37.7502C233.631 37.7526 233.638 37.7549 233.644 37.7572H233.625V41.6246H233.838C233.846 41.6269 233.853 41.6293 233.863 41.6304C233.888 41.6339 233.909 41.6316 233.928 41.6246H234.089V38.8433H234.086C234.087 38.8433 234.088 38.8421 234.089 38.8421V38.8433H235.016V35.6669V31.7762V30.6281H235.427V29.9618H237.205V30.5825C237.211 30.5989 237.218 30.6141 237.226 30.6281H237.62V33.7929V35.3314L237.701 35.3758L238.228 35.6681L238.516 35.8271V29.3515V28.7027L238.795 28.5834C238.852 28.5472 238.917 28.5168 238.989 28.4887C239.118 28.4384 239.246 28.387 239.375 28.3356L240.895 27.6867L240.993 27.7849L242.231 29.023L242.365 29.1574V30.1757C242.397 30.6024 242.405 31.0291 242.365 31.457V32.0345V32.1526H242.713V31.6616V31.5517H243.946H244.024V31.4851V30.9496V30.883H245.44H248.726L248.747 30.897V31.3576V32.3069C249.095 32.0123 249.21 31.2115 249.21 31.2115L249.208 31.2103C249.53 29.7665 249.703 28.2666 249.703 26.7269C249.703 15.3879 240.511 6.19653 229.172 6.19653C224.993 6.19653 221.105 7.44629 217.862 9.59156C217.797 9.63482 217.73 9.67808 217.665 9.7225C217.623 9.75056 217.582 9.77979 217.54 9.80902C217.415 9.89553 217.29 9.98321 217.166 10.0732C217.161 10.0767 217.156 10.0802 217.15 10.0838C216.533 10.5327 215.942 11.0167 215.375 11.5334C214.125 12.6745 213.022 13.9464 212.087 15.3669C211.078 16.8984 210.281 18.5257 209.693 20.2607C209.562 20.6476 209.437 21.0358 209.343 21.4344C209.335 21.4707 209.322 21.5081 209.304 21.5373C209.245 21.7618 209.191 21.9874 209.14 22.2142C209.121 22.123 209.1 22.0295 209.08 21.9371C208.747 23.4078 208.569 24.9382 208.569 26.5094C208.569 27.8048 208.69 29.0709 208.919 30.2996C208.938 30.3137 208.952 30.3312 208.96 30.3546C208.966 30.3698 208.97 30.385 208.975 30.4013C208.988 30.4493 208.989 30.4995 208.998 30.5486C209.268 31.8113 209.597 33.0552 210.089 34.2535C210.322 34.8181 210.57 35.3735 210.84 35.9206C210.996 36.2257 211.161 36.525 211.332 36.8208C211.476 36.9927 211.66 37.0347 212.093 37.0114ZM237.643 23.7843C237.62 23.3938 237.489 23.2524 237.095 23.2173C236.712 23.1834 236.326 23.1904 235.944 23.139C235.721 23.1097 235.504 23.063 235.289 23.0022C235.014 22.925 234.833 22.7508 234.749 22.4854C234.61 22.0482 234.611 21.6051 234.748 21.1667C234.822 20.927 234.985 20.761 235.228 20.6874C236.022 20.4465 236.82 20.4524 237.611 20.6897C237.985 20.802 238.255 21.3842 238.151 21.7664C238.131 21.8389 238.088 21.8693 238.021 21.8728C237.934 21.8763 237.847 21.8728 237.76 21.8763C237.641 21.881 237.576 21.8366 237.571 21.7068C237.569 21.6215 237.549 21.535 237.53 21.4508C237.473 21.2076 237.328 21.0662 237.071 21.0334C236.61 20.9726 236.154 21.0112 235.697 21.0627C235.661 21.0673 235.623 21.0779 235.589 21.0907C235.31 21.1983 235.205 21.4613 235.242 21.9535C235.27 22.3346 235.377 22.4878 235.682 22.5532C235.925 22.6059 236.173 22.6211 236.423 22.6175C236.822 22.6117 237.213 22.6631 237.602 22.759C237.901 22.8327 238.092 23.0069 238.165 23.2921C238.295 23.8077 238.285 24.3244 238.101 24.8295C237.994 25.1206 237.746 25.234 237.47 25.2936C237.178 25.3567 236.878 25.3509 236.581 25.3602C236.143 25.3731 235.714 25.331 235.289 25.2269C234.944 25.1416 234.762 24.9183 234.68 24.5945C234.644 24.4507 234.624 24.301 234.615 24.1537C234.598 23.8287 234.64 23.8007 234.97 23.8053C235.124 23.8077 235.202 23.8544 235.195 24.0146C235.194 24.0508 235.203 24.0883 235.209 24.1257C235.294 24.702 235.416 24.8283 235.995 24.8493C236.39 24.8634 236.788 24.8844 237.184 24.8143C237.461 24.7652 237.6 24.605 237.629 24.3443C237.648 24.1572 237.654 23.969 237.643 23.7843ZM222.104 27.8165C222.097 27.813 222.089 27.8083 222.08 27.8036C222.089 27.8095 222.097 27.813 222.104 27.8165ZM230.056 21.1737C230.137 20.837 230.366 20.6242 230.686 20.5529C231.461 20.3787 232.239 20.3869 233 20.6383C233.277 20.7295 233.452 20.9294 233.536 21.2123C233.622 21.5011 233.65 21.7968 233.656 22.095C233.661 22.3931 233.657 22.6912 233.657 22.9893C233.659 22.9893 233.663 22.9893 233.665 22.9893C233.649 23.3365 233.632 23.6838 233.617 24.031C233.608 24.2437 233.561 24.4495 233.484 24.6471C233.379 24.9148 233.197 25.1089 232.918 25.2012C232.836 25.2281 232.753 25.262 232.669 25.2761C232.05 25.3778 231.432 25.3579 230.817 25.2468C230.318 25.1568 230.006 24.8599 229.952 24.3571C229.839 23.2921 229.805 22.2271 230.056 21.1737ZM224.592 24.28C224.592 23.1378 224.591 21.9956 224.592 20.8522C224.592 20.5307 224.596 20.5225 224.921 20.5272C225.625 20.5366 225.432 20.4278 225.786 21.0077C226.467 22.1195 227.147 23.2301 227.829 24.3408C227.893 24.446 227.965 24.5489 228.062 24.6974C228.129 24.5278 228.106 24.4062 228.107 24.287C228.109 23.1565 228.107 22.0272 228.108 20.8966C228.108 20.5284 228.184 20.4688 228.544 20.526C228.653 20.5436 228.693 20.5962 228.692 20.6979C228.691 20.7599 228.693 20.8218 228.693 20.8838C228.693 22.2493 228.693 23.6159 228.692 24.9814C228.692 25.3287 228.689 25.3368 228.35 25.331C227.665 25.3193 227.86 25.4444 227.484 24.8435C226.765 23.6978 226.059 22.5439 225.347 21.3935C225.315 21.3421 225.278 21.2941 225.229 21.224C225.124 21.3269 225.163 21.4426 225.163 21.542C225.16 22.6351 225.161 23.727 225.161 24.8201C225.161 24.8949 225.166 24.9698 225.16 25.0434C225.153 25.1369 225.201 25.2667 225.084 25.3076C224.945 25.3567 224.788 25.3614 224.648 25.3006C224.566 25.2655 224.594 25.1697 224.593 25.0995C224.591 24.826 224.592 24.5524 224.592 24.28ZM224.38 30.4937H224.574H224.634V30.4481V30.2295H225.27H225.302V30.178V29.6297H227.655V30.164V30.2306H227.713H228.924V30.4949H229.629V30.8304H224.381V30.4937H224.38ZM219.338 25.1077C219.406 24.9744 219.41 24.8213 219.475 24.695C219.906 23.8416 220.149 22.918 220.498 22.033C220.661 21.618 220.812 21.1983 220.955 20.7751C221.013 20.6009 221.094 20.5132 221.294 20.5214C221.953 20.5494 221.805 20.4138 222.04 21.044C222.525 22.344 223.009 23.644 223.493 24.9452C223.531 25.0481 223.566 25.1533 223.6 25.2503C223.52 25.3602 223.412 25.3181 223.319 25.3322C223.098 25.3649 222.974 25.2796 222.918 25.0574C222.873 24.8786 222.783 24.7114 222.728 24.5337C222.676 24.363 222.574 24.3104 222.398 24.3127C221.766 24.3209 221.134 24.3221 220.501 24.3116C220.334 24.3092 220.249 24.3759 220.198 24.5185C220.141 24.681 220.086 24.8435 220.029 25.006C219.927 25.2971 219.927 25.2971 219.596 25.3404C219.547 25.3404 219.497 25.3404 219.448 25.3404C219.341 25.2959 219.284 25.2129 219.338 25.1077Z" fill="white"/>
</svg>
