<svg width="41" height="41" viewBox="0 0 41 41" fill="none" xmlns="http://www.w3.org/2000/svg">
<circle cx="20.5" cy="20.5" r="20.5" fill="#205CA4"/>
<path d="M20.2515 26.18C19.6035 26.18 18.9315 26.096 18.2355 25.928C17.5395 25.76 16.9335 25.508 16.4175 25.172C16.1175 24.968 15.9375 24.74 15.8775 24.488C15.8175 24.224 15.8475 23.99 15.9675 23.786C16.0875 23.57 16.2675 23.426 16.5075 23.354C16.7595 23.282 17.0415 23.33 17.3535 23.498C17.8455 23.762 18.3195 23.954 18.7755 24.074C19.2315 24.182 19.6995 24.236 20.1795 24.236C21.7995 24.236 22.6095 23.6 22.6095 22.328C22.6095 21.728 22.4055 21.284 21.9975 20.996C21.6015 20.696 21.0195 20.546 20.2515 20.546H19.0995C18.7635 20.546 18.5055 20.462 18.3255 20.294C18.1575 20.126 18.0735 19.892 18.0735 19.592C18.0735 19.292 18.1575 19.058 18.3255 18.89C18.5055 18.722 18.7635 18.638 19.0995 18.638H20.0355C20.7075 18.638 21.2415 18.476 21.6375 18.152C22.0335 17.816 22.2315 17.354 22.2315 16.766C22.2315 16.214 22.0455 15.794 21.6735 15.506C21.3135 15.218 20.7855 15.074 20.0895 15.074C19.6455 15.074 19.2255 15.128 18.8295 15.236C18.4455 15.332 18.0195 15.518 17.5515 15.794C17.2755 15.962 17.0235 16.01 16.7955 15.938C16.5675 15.854 16.3875 15.71 16.2555 15.506C16.1355 15.29 16.0995 15.056 16.1475 14.804C16.1955 14.552 16.3635 14.336 16.6515 14.156C17.7075 13.472 18.9195 13.13 20.2875 13.13C21.6075 13.13 22.6335 13.43 23.3655 14.03C24.0975 14.618 24.4635 15.44 24.4635 16.496C24.4635 17.18 24.2895 17.78 23.9415 18.296C23.5935 18.812 23.1195 19.184 22.5195 19.412C23.2515 19.616 23.8215 19.994 24.2295 20.546C24.6375 21.086 24.8415 21.746 24.8415 22.526C24.8415 23.654 24.4335 24.548 23.6175 25.208C22.8015 25.856 21.6795 26.18 20.2515 26.18Z" fill="white"/>
</svg>
