<svg width="125" height="48" viewBox="0 0 125 48" fill="none" xmlns="http://www.w3.org/2000/svg">
<rect width="125" height="48" rx="10" fill="#7DAFEB" fill-opacity="0.3"/>
<path d="M21.0422 32.4597V24.7363H19V21.9555H21.0422V19.5804C21.0422 17.714 22.2486 16 25.0282 16C26.1537 16 26.9859 16.1079 26.9859 16.1079L26.9203 18.7047C26.9203 18.7047 26.0716 18.6964 25.1454 18.6964C24.143 18.6964 23.9824 19.1583 23.9824 19.9251V21.9555H27L26.8687 24.7363H23.9824V32.4597H21.0422Z" fill="#7DAFEB"/>
<path d="M48.002 29.112C47.386 29.112 47.078 28.7947 47.078 28.16V20.082C47.078 19.4473 47.3953 19.13 48.03 19.13H52.916C53.4013 19.13 53.644 19.3633 53.644 19.83C53.644 20.3153 53.4013 20.558 52.916 20.558H48.87V23.344H52.622C53.1073 23.344 53.35 23.5773 53.35 24.044C53.35 24.5293 53.1073 24.772 52.622 24.772H48.87V28.16C48.87 28.7947 48.5807 29.112 48.002 29.112ZM56.6119 29.14C56.1172 29.14 55.6739 29.0467 55.2819 28.86C54.8992 28.664 54.5959 28.4027 54.3719 28.076C54.1572 27.7493 54.0499 27.3807 54.0499 26.97C54.0499 26.466 54.1806 26.0693 54.4419 25.78C54.7032 25.4813 55.1279 25.2667 55.7159 25.136C56.3039 25.0053 57.0926 24.94 58.0819 24.94H58.5719V24.646C58.5719 24.1793 58.4692 23.8433 58.2639 23.638C58.0586 23.4327 57.7132 23.33 57.2279 23.33C56.9572 23.33 56.6632 23.3627 56.3459 23.428C56.0379 23.4933 55.7112 23.6053 55.3659 23.764C55.1419 23.8667 54.9552 23.8807 54.8059 23.806C54.6566 23.722 54.5539 23.596 54.4979 23.428C54.4512 23.2507 54.4606 23.0733 54.5259 22.896C54.6006 22.7187 54.7452 22.588 54.9599 22.504C55.3892 22.3267 55.7999 22.2007 56.1919 22.126C56.5932 22.0513 56.9572 22.014 57.2839 22.014C58.2826 22.014 59.0246 22.2473 59.5099 22.714C59.9952 23.1713 60.2379 23.8853 60.2379 24.856V28.216C60.2379 28.8133 59.9672 29.112 59.4259 29.112C58.8752 29.112 58.5999 28.8133 58.5999 28.216V27.908C58.4412 28.2907 58.1892 28.594 57.8439 28.818C57.4986 29.0327 57.0879 29.14 56.6119 29.14ZM56.9759 27.936C57.4332 27.936 57.8112 27.7773 58.1099 27.46C58.4179 27.1427 58.5719 26.7413 58.5719 26.256V25.948H58.0959C57.2186 25.948 56.6072 26.018 56.2619 26.158C55.9259 26.2887 55.7579 26.5313 55.7579 26.886C55.7579 27.194 55.8652 27.446 56.0799 27.642C56.2946 27.838 56.5932 27.936 56.9759 27.936ZM65.0381 29.14C64.3195 29.14 63.6941 28.9953 63.1621 28.706C62.6301 28.4073 62.2195 27.9873 61.9301 27.446C61.6408 26.9047 61.4961 26.27 61.4961 25.542C61.4961 24.814 61.6408 24.1887 61.9301 23.666C62.2195 23.134 62.6301 22.728 63.1621 22.448C63.6941 22.1587 64.3195 22.014 65.0381 22.014C65.3461 22.014 65.6775 22.056 66.0321 22.14C66.3961 22.224 66.7368 22.364 67.0541 22.56C67.2408 22.672 67.3481 22.8167 67.3761 22.994C67.4135 23.1713 67.3901 23.3347 67.3061 23.484C67.2315 23.6333 67.1148 23.7407 66.9561 23.806C66.8068 23.8713 66.6341 23.848 66.4381 23.736C66.0088 23.4933 65.5935 23.372 65.1921 23.372C64.5855 23.372 64.1141 23.5633 63.7781 23.946C63.4515 24.3193 63.2881 24.856 63.2881 25.556C63.2881 26.2467 63.4515 26.7927 63.7781 27.194C64.1141 27.586 64.5855 27.782 65.1921 27.782C65.5935 27.782 66.0088 27.6653 66.4381 27.432C66.6341 27.32 66.8068 27.2967 66.9561 27.362C67.1055 27.4273 67.2128 27.5393 67.2781 27.698C67.3435 27.8473 67.3575 28.0107 67.3201 28.188C67.2828 28.356 67.1755 28.496 66.9981 28.608C66.6901 28.7947 66.3635 28.93 66.0181 29.014C65.6728 29.098 65.3461 29.14 65.0381 29.14ZM71.5749 29.14C70.8003 29.14 70.1329 28.9953 69.5729 28.706C69.0129 28.4167 68.5789 28.006 68.2709 27.474C67.9723 26.942 67.8229 26.312 67.8229 25.584C67.8229 24.8747 67.9676 24.254 68.2569 23.722C68.5556 23.19 68.9616 22.7747 69.4749 22.476C69.9976 22.168 70.5903 22.014 71.2529 22.014C72.2236 22.014 72.9889 22.322 73.5489 22.938C74.1183 23.554 74.4029 24.394 74.4029 25.458C74.4029 25.8033 74.1789 25.976 73.7309 25.976H69.5029C69.6336 27.1987 70.3336 27.81 71.6029 27.81C71.8456 27.81 72.1163 27.782 72.4149 27.726C72.7229 27.6607 73.0123 27.5533 73.2829 27.404C73.5256 27.264 73.7309 27.222 73.8989 27.278C74.0669 27.3247 74.1836 27.4227 74.2489 27.572C74.3236 27.7213 74.3329 27.8893 74.2769 28.076C74.2303 28.2533 74.0996 28.4073 73.8849 28.538C73.5583 28.7433 73.1803 28.8973 72.7509 29C72.3309 29.0933 71.9389 29.14 71.5749 29.14ZM71.3229 23.204C70.8096 23.204 70.3943 23.3627 70.0769 23.68C69.7596 23.9973 69.5683 24.4267 69.5029 24.968H72.9469C72.9096 24.3987 72.7509 23.9647 72.4709 23.666C72.2003 23.358 71.8176 23.204 71.3229 23.204ZM79.5968 29.14C79.0928 29.14 78.6448 29.0327 78.2528 28.818C77.8608 28.594 77.5668 28.2953 77.3708 27.922V28.216C77.3708 28.8133 77.0862 29.112 76.5168 29.112C75.9382 29.112 75.6488 28.8133 75.6488 28.216V19.9C75.6488 19.312 75.9382 19.018 76.5168 19.018C77.1048 19.018 77.3988 19.312 77.3988 19.9V23.162C77.6042 22.8167 77.8982 22.5413 78.2808 22.336C78.6728 22.1213 79.1115 22.014 79.5968 22.014C80.2035 22.014 80.7308 22.1587 81.1788 22.448C81.6268 22.7373 81.9768 23.148 82.2288 23.68C82.4808 24.2027 82.6068 24.8327 82.6068 25.57C82.6068 26.298 82.4808 26.9327 82.2288 27.474C81.9768 28.006 81.6222 28.4167 81.1648 28.706C80.7168 28.9953 80.1942 29.14 79.5968 29.14ZM79.1068 27.81C79.6295 27.81 80.0495 27.6233 80.3668 27.25C80.6842 26.8673 80.8428 26.3073 80.8428 25.57C80.8428 24.8233 80.6842 24.268 80.3668 23.904C80.0495 23.5307 79.6295 23.344 79.1068 23.344C78.5842 23.344 78.1642 23.5307 77.8468 23.904C77.5295 24.268 77.3708 24.8233 77.3708 25.57C77.3708 26.3073 77.5295 26.8673 77.8468 27.25C78.1642 27.6233 78.5842 27.81 79.1068 27.81ZM87.0254 29.14C86.316 29.14 85.7 28.9953 85.1774 28.706C84.6547 28.4167 84.2487 28.006 83.9594 27.474C83.67 26.9327 83.5254 26.298 83.5254 25.57C83.5254 24.842 83.67 24.212 83.9594 23.68C84.2487 23.148 84.6547 22.7373 85.1774 22.448C85.7 22.1587 86.316 22.014 87.0254 22.014C87.7347 22.014 88.3507 22.1587 88.8734 22.448C89.396 22.7373 89.802 23.148 90.0914 23.68C90.3807 24.212 90.5254 24.842 90.5254 25.57C90.5254 26.298 90.3807 26.9327 90.0914 27.474C89.802 28.006 89.396 28.4167 88.8734 28.706C88.3507 28.9953 87.7347 29.14 87.0254 29.14ZM87.0254 27.81C87.548 27.81 87.968 27.6233 88.2854 27.25C88.6027 26.8673 88.7614 26.3073 88.7614 25.57C88.7614 24.8233 88.6027 24.268 88.2854 23.904C87.968 23.5307 87.548 23.344 87.0254 23.344C86.5027 23.344 86.0827 23.5307 85.7654 23.904C85.448 24.268 85.2894 24.8233 85.2894 25.57C85.2894 26.3073 85.448 26.8673 85.7654 27.25C86.0827 27.6233 86.5027 27.81 87.0254 27.81ZM94.9518 29.14C94.2424 29.14 93.6264 28.9953 93.1038 28.706C92.5811 28.4167 92.1751 28.006 91.8858 27.474C91.5964 26.9327 91.4518 26.298 91.4518 25.57C91.4518 24.842 91.5964 24.212 91.8858 23.68C92.1751 23.148 92.5811 22.7373 93.1038 22.448C93.6264 22.1587 94.2424 22.014 94.9518 22.014C95.6611 22.014 96.2771 22.1587 96.7998 22.448C97.3224 22.7373 97.7284 23.148 98.0178 23.68C98.3071 24.212 98.4518 24.842 98.4518 25.57C98.4518 26.298 98.3071 26.9327 98.0178 27.474C97.7284 28.006 97.3224 28.4167 96.7998 28.706C96.2771 28.9953 95.6611 29.14 94.9518 29.14ZM94.9518 27.81C95.4744 27.81 95.8944 27.6233 96.2118 27.25C96.5291 26.8673 96.6878 26.3073 96.6878 25.57C96.6878 24.8233 96.5291 24.268 96.2118 23.904C95.8944 23.5307 95.4744 23.344 94.9518 23.344C94.4291 23.344 94.0091 23.5307 93.6918 23.904C93.3744 24.268 93.2158 24.8233 93.2158 25.57C93.2158 26.3073 93.3744 26.8673 93.6918 27.25C94.0091 27.6233 94.4291 27.81 94.9518 27.81ZM100.624 29.112C100.046 29.112 99.7562 28.8133 99.7562 28.216V19.9C99.7562 19.312 100.046 19.018 100.624 19.018C101.212 19.018 101.506 19.312 101.506 19.9V25.066H101.534L103.844 22.63C104.031 22.4433 104.194 22.2987 104.334 22.196C104.474 22.0933 104.666 22.042 104.908 22.042C105.151 22.042 105.333 22.1073 105.454 22.238C105.585 22.3593 105.65 22.5087 105.65 22.686C105.65 22.8633 105.566 23.0407 105.398 23.218L103.298 25.43L105.636 27.95C105.804 28.1273 105.879 28.3093 105.86 28.496C105.851 28.6733 105.776 28.8227 105.636 28.944C105.496 29.056 105.319 29.112 105.104 29.112C104.843 29.112 104.633 29.0607 104.474 28.958C104.325 28.8553 104.157 28.7013 103.97 28.496L101.534 25.948H101.506V28.216C101.506 28.8133 101.212 29.112 100.624 29.112Z" fill="#7DAFEB"/>
</svg>
