<svg width="32" height="32" viewBox="0 0 32 32" fill="none" xmlns="http://www.w3.org/2000/svg">
<path d="M16.0293 30.1415C23.936 30.1415 30.3456 23.7319 30.3456 15.8252C30.3456 7.91845 23.936 1.50879 16.0293 1.50879C8.12255 1.50879 1.71289 7.91845 1.71289 15.8252C1.71289 23.7319 8.12255 30.1415 16.0293 30.1415Z" stroke="#205CA4" stroke-width="2" stroke-linecap="round" stroke-linejoin="round"/>
<path d="M11.8633 11.5303C12.1999 10.5735 12.8642 9.7667 13.7387 9.25278C14.6131 8.73886 15.6412 8.551 16.6409 8.72247C17.6406 8.89395 18.5473 9.41369 19.2005 10.1896C19.8537 10.9656 20.2112 11.9477 20.2097 12.962C20.2097 15.8252 15.9148 17.2569 15.9148 17.2569" stroke="#205CA4" stroke-width="2" stroke-linecap="round" stroke-linejoin="round"/>
<path d="M16.0293 22.9834H16.0429" stroke="#205CA4" stroke-width="2" stroke-linecap="round" stroke-linejoin="round"/>
</svg>
