<svg width="28" height="21" viewBox="0 0 28 21" fill="none" xmlns="http://www.w3.org/2000/svg">
<path d="M20.5724 11.0159L20.5724 11.0159L20.1918 12.134C20.1918 12.134 20.1918 12.134 20.1918 12.134C19.9276 12.9108 19.0809 13.5153 18.2605 13.5153H9.73824C8.91574 13.5153 8.07422 12.9076 7.81872 12.1256L7.45487 11.0135L7.45486 11.0135C7.41164 10.8812 7.43449 10.738 7.51618 10.6255L20.5724 11.0159ZM20.5724 11.0159C20.6175 10.883 20.5958 10.741 20.5143 10.6272M20.5724 11.0159L20.5143 10.6272M20.5143 10.6272C20.4321 10.5124 20.3 10.45 20.1611 10.45M20.5143 10.6272L20.1611 10.45M20.1611 10.45H7.86778M20.1611 10.45H7.86778M7.86778 10.45C7.72966 10.45 7.59852 10.512 7.51618 10.6255L7.86778 10.45ZM8.64462 11.8586L8.64458 11.8585L8.46676 11.3188H19.5543L19.3694 11.8578L19.3693 11.858C19.2985 12.0661 19.1339 12.2638 18.9281 12.4099C18.7223 12.5559 18.4807 12.6465 18.2606 12.6465H9.7383C9.51926 12.6465 9.27995 12.556 9.07694 12.4101C8.87392 12.2642 8.71254 12.0666 8.64462 11.8586Z" fill="#205CA4" stroke="#205CA4" stroke-width="0.1"/>
<path d="M26.0313 8.99225L26.0672 8.9574C26.6979 9.60649 27.0789 10.4058 27.0789 11.1015V14.5996C27.0789 15.7484 26.3663 16.7321 25.3217 17.1239V19.0223C25.3217 19.5757 24.8985 20.05 24.3389 20.05H22.4391C21.8811 20.05 21.4327 19.5774 21.4327 19.0223V17.3043H6.48642V19.0223C6.48642 19.5785 6.02043 20.05 5.46357 20.05H3.69015C3.13055 20.05 2.70723 19.5757 2.70723 19.0223V17.124C1.66261 16.7321 0.95 15.7485 0.95 14.5996V11.1015C0.95 10.7112 1.0823 10.2958 1.27328 9.91824C1.46445 9.5403 1.71627 9.1966 1.95966 8.94917C2.1279 8.77802 2.40298 8.77586 2.57394 8.94396L26.0313 8.99225ZM26.0313 8.99225L26.0672 8.9574C25.8066 8.68933 25.1945 8.19453 24.733 7.85925H25.6499C26.398 7.85925 27.0137 7.29541 27.0137 6.60121C27.0137 6.22264 26.8228 5.90603 26.4962 5.68601C26.1708 5.4668 25.711 5.34306 25.1667 5.34306H23.9239C23.7692 4.58664 23.5913 3.76508 23.43 3.33217C22.8862 1.87185 21.7472 0.95 20.4509 0.95H7.60569C6.28405 0.95 5.07581 1.91653 4.59281 3.33783L4.59281 3.33783C4.44545 3.77158 4.27178 4.58667 4.11672 5.34306H2.86222C2.31793 5.34306 1.85811 5.4668 1.53273 5.68601C1.20617 5.90603 1.01524 6.22263 1.01524 6.60121C1.01524 7.29541 1.63089 7.85925 2.37898 7.85925H3.2899C3.13955 8.0112 3.12088 8.2541 3.25498 8.42836C3.34064 8.53967 3.46955 8.59745 3.59954 8.59745C3.69209 8.59745 3.78535 8.56773 3.86417 8.50713L3.86418 8.50712C4.00822 8.39629 4.13432 8.30032 4.22286 8.23319C5.09165 8.32433 9.51656 8.76455 13.9087 8.76455C18.2763 8.76455 22.8439 8.32917 23.7824 8.23483C24.0122 8.40432 24.3516 8.65899 24.6708 8.90888C24.9983 9.16525 25.3013 9.41421 25.4441 9.56118C25.7111 9.83599 25.92 10.1439 26.0518 10.443C25.469 10.4402 24.4182 10.4367 24.0746 10.4453C22.9216 10.4741 22.0588 10.8796 21.5207 11.6572C21.3285 11.9349 21.2309 12.2707 21.181 12.5455C21.131 12.8208 21.1282 13.0389 21.1282 13.0841C21.1283 13.3244 21.3232 13.5153 21.5626 13.5153H26.2101V14.5996C26.2101 15.6126 25.3859 16.4355 24.3729 16.4355H3.65599C2.64295 16.4355 1.81879 15.6126 1.81879 14.5996V13.5153H6.46629C6.70567 13.5153 6.90068 13.3244 6.90068 13.0841C6.90068 13.0389 6.89792 12.8205 6.84791 12.5447C6.79802 12.2696 6.70039 11.9334 6.50817 11.6556L6.46706 11.6841L6.50817 11.6556C5.97004 10.8781 5.10731 10.4734 3.95439 10.4446C3.61661 10.436 2.58144 10.4397 1.98446 10.4425M26.0313 8.99225L1.98446 10.4425M1.98446 10.4425C2.13308 10.1079 2.36044 9.78044 2.57909 9.55816C2.74733 9.38713 2.74504 9.11214 2.57395 8.94396L1.98446 10.4425ZM22.6159 3.63972L22.6627 3.62227L22.6159 3.63974C22.7575 4.01977 22.921 4.74578 23.068 5.49245C23.209 6.20916 23.334 6.9407 23.4088 7.39396C22.0522 7.52485 17.8949 7.89565 13.9087 7.89565C9.944 7.89565 5.94846 7.53291 4.62322 7.40066C4.70139 6.94645 4.83094 6.2127 4.97343 5.49225C5.12182 4.74195 5.28356 4.00978 5.41542 3.62161C5.78186 2.54336 6.6654 1.81879 7.60569 1.81879H20.4509C21.3638 1.81879 22.1968 2.51425 22.6159 3.63972ZM3.57601 19.0223V17.3037C3.60138 17.3041 3.63151 17.3043 3.65599 17.3043H5.61763V19.0223C5.61763 19.0594 5.59973 19.0997 5.56908 19.1313C5.53844 19.163 5.49972 19.1812 5.46357 19.1812H3.69015C3.65633 19.1812 3.62949 19.1653 3.60939 19.1371C3.58851 19.1078 3.57601 19.0662 3.57601 19.0223ZM24.3729 17.3043C24.3974 17.3043 24.4275 17.3042 24.4529 17.3037V19.0223C24.4529 19.0662 24.4404 19.1079 24.4196 19.1371C24.3995 19.1653 24.3727 19.1812 24.3389 19.1812H22.4391C22.3684 19.1812 22.3014 19.1068 22.3014 19.0223V17.3043H24.3729ZM24.0964 11.3123L24.0952 11.2657L24.0964 11.3123C24.4579 11.3032 25.6891 11.3098 26.2101 11.3126V12.6465H22.0482C22.0851 12.486 22.144 12.2802 22.2351 12.1485L22.1993 12.1237L22.2351 12.1485C22.6079 11.6099 23.212 11.3344 24.0964 11.3123ZM25.1667 6.21185C25.45 6.21185 25.7 6.26018 25.8772 6.33633C25.966 6.37444 26.0342 6.41854 26.0795 6.46496C26.1246 6.51112 26.1449 6.55708 26.1449 6.60121C26.1449 6.70022 26.0922 6.79678 26.0017 6.87006C25.9114 6.9432 25.7863 6.99046 25.6499 6.99046H24.2219C24.1917 6.79621 24.1568 6.60045 24.1183 6.38468C24.1082 6.32853 24.098 6.27103 24.0875 6.21185H25.1667ZM1.88402 6.60121C1.88402 6.55708 1.9043 6.51112 1.94938 6.46496C1.99471 6.41854 2.06293 6.37444 2.15165 6.33633C2.32894 6.26018 2.57894 6.21185 2.86222 6.21185H3.95082C3.93836 6.28046 3.92619 6.34683 3.91434 6.41144C3.8767 6.61668 3.84229 6.80428 3.81233 6.99046H2.37898C2.24259 6.99046 2.11749 6.9432 2.02721 6.87006C1.93674 6.79677 1.88402 6.70022 1.88402 6.60121ZM3.9326 11.3138C4.81693 11.3359 5.421 11.6099 5.79377 12.1485C5.88516 12.2806 5.94415 12.4862 5.9809 12.6465H1.81879V11.3125C2.36116 11.3098 3.57651 11.3049 3.9326 11.3138Z" fill="#205CA4" stroke="#205CA4" stroke-width="0.1"/>
<path d="M10.2891 14.0741C10.0491 14.0741 9.85466 14.2686 9.85466 14.5085C9.85466 14.7484 10.0491 14.9429 10.2891 14.9429H17.7398C17.9797 14.9429 18.1742 14.7484 18.1742 14.5085C18.1742 14.2686 17.9797 14.0741 17.7398 14.0741H10.2891Z" fill="#205CA4" stroke="#205CA4" stroke-width="0.1"/>
</svg>
