<svg width="22" height="20" viewBox="0 0 22 20" fill="none" xmlns="http://www.w3.org/2000/svg">
<g opacity="0.7">
<path d="M15.4258 6.5C17.0171 6.5 18.5432 7.13214 19.6684 8.25736C20.7936 9.38258 21.4258 10.9087 21.4258 12.5V19.5H17.4258V12.5C17.4258 11.9696 17.2151 11.4609 16.84 11.0858C16.4649 10.7107 15.9562 10.5 15.4258 10.5C14.8953 10.5 14.3866 10.7107 14.0116 11.0858C13.6365 11.4609 13.4258 11.9696 13.4258 12.5V19.5H9.42578V12.5C9.42578 10.9087 10.0579 9.38258 11.1831 8.25736C12.3084 7.13214 13.8345 6.5 15.4258 6.5V6.5Z" stroke="#205CA4" stroke-linecap="round" stroke-linejoin="round"/>
<path d="M5.42578 7.5H1.42578V19.5H5.42578V7.5Z" stroke="#205CA4" stroke-linecap="round" stroke-linejoin="round"/>
<path d="M3.42578 4.5C4.53035 4.5 5.42578 3.60457 5.42578 2.5C5.42578 1.39543 4.53035 0.5 3.42578 0.5C2.32121 0.5 1.42578 1.39543 1.42578 2.5C1.42578 3.60457 2.32121 4.5 3.42578 4.5Z" stroke="#205CA4" stroke-linecap="round" stroke-linejoin="round"/>
</g>
</svg>
