<svg width="96" height="32" viewBox="0 0 96 32" fill="none" xmlns="http://www.w3.org/2000/svg">
<path d="M40.7596 27.4849C40.4224 27.8235 40.043 28.1622 39.6215 28.4161C38.9471 28.7972 38.1884 29.0088 37.4719 29.0088C36.8817 29.0088 36.2916 28.8819 35.7858 28.6702C35.28 28.4161 34.8163 28.1199 34.4369 27.7388C34.0576 27.3578 33.7204 26.8922 33.5096 26.3842C33.2989 25.8761 33.1724 25.3258 33.1724 24.7755C33.1724 24.1828 33.2989 23.5902 33.5518 23.0822C33.8047 22.5319 34.0998 22.0661 34.5213 21.6852C34.9006 21.3042 35.3643 21.0078 35.9123 20.7538C36.4181 20.5422 36.9661 20.4152 37.5561 20.4152C37.9355 20.4152 38.3149 20.4575 38.6942 20.5845C39.0314 20.6692 39.3686 20.8385 39.6637 21.0078C39.8744 21.1349 40.0852 21.2619 40.2959 21.4311C40.4645 21.6005 40.6752 21.7275 40.8017 21.9392C41.1389 22.3202 41.6447 22.5319 42.1927 22.5319H43.4994C43.2887 21.9392 42.9935 21.3888 42.6142 20.9232C42.2349 20.4152 41.7712 19.9495 41.2232 19.5685C41.0968 19.4838 41.0125 19.4415 40.886 19.3569L40.8439 19.3145C40.8017 19.2722 40.7596 19.2722 40.6752 19.2299C40.2959 19.0182 39.9166 18.8488 39.4951 18.6795C38.8628 18.4678 38.1884 18.3408 37.5139 18.3408C37.5139 18.3408 37.5139 18.3408 37.4719 18.3408C36.6288 18.3408 35.7858 18.5102 35.0271 18.8488C34.8584 18.9335 34.6899 19.0182 34.5213 19.1028C33.9311 19.3992 33.4254 19.8225 32.9617 20.2458C32.3716 20.8385 31.9079 21.5158 31.5708 22.3202C31.2335 23.0822 31.0649 23.9288 31.0649 24.7755C31.0649 25.6645 31.2335 26.4688 31.5708 27.2308C31.9079 27.9928 32.3716 28.6702 32.9617 29.2628C33.5518 29.8132 34.2262 30.2788 34.9849 30.6175C35.7436 30.9561 36.5445 31.1255 37.4297 31.1255C38.1041 31.1255 38.7785 30.9985 39.4107 30.8292C40.043 30.6175 40.6332 30.3211 41.1811 29.9402C41.729 29.5592 42.1927 29.0935 42.572 28.5855C42.9514 28.0775 43.2465 27.5272 43.4572 26.9769H42.1505C41.6026 26.8922 41.0968 27.1038 40.7596 27.4849Z" fill="white"/>
<path d="M55.6384 27.0614C55.3434 26.9768 54.0788 26.6381 53.1515 27.6541C52.9829 27.8658 52.73 28.1198 52.4771 28.2891C52.1399 28.5431 51.7605 28.7125 51.3812 28.8818C50.9596 29.0511 50.5381 29.1358 50.0324 29.1358C49.6529 29.1358 49.2736 29.0935 48.8943 28.9664C48.5571 28.8818 48.2199 28.7125 47.9669 28.5431C47.6719 28.3738 47.4611 28.1621 47.2926 27.9081C47.1239 27.6541 47.0396 27.3578 47.0396 27.0614C47.0396 26.7228 47.1661 26.4264 47.3347 26.2148C47.5033 25.9608 47.7562 25.7914 48.0513 25.6221C48.3463 25.4528 48.6414 25.3681 48.9786 25.2835C49.3158 25.2411 49.6108 25.1988 49.9059 25.1988C50.2852 25.1988 50.6646 25.2411 51.0439 25.2835C51.4233 25.3681 51.8027 25.4105 52.1399 25.4952C52.4771 25.5798 52.7721 25.6221 53.025 25.7068C53.6994 25.9185 54.7532 25.9185 55.2169 25.5798C55.4277 25.4105 55.6384 25.1988 55.6805 24.7755V23.6748V23.4631C55.6805 22.5318 55.5119 21.7275 55.2169 21.0925C54.9219 20.4575 54.5425 19.9071 54.0789 19.4838C53.6152 19.0605 53.0672 18.7641 52.4349 18.5525C51.8027 18.3408 51.1282 18.2561 50.4117 18.2561C49.8216 18.2561 49.1893 18.3408 48.6414 18.5102C48.0513 18.6794 47.5454 18.9335 47.0818 19.3144C46.6181 19.6531 46.2388 20.1188 45.9438 20.6268C45.6486 21.1348 45.4801 21.8121 45.4379 22.4894H46.2809C46.9131 22.4894 47.3346 22.1508 47.5033 21.8968C47.6719 21.6852 48.0934 21.0502 48.5571 20.7538C48.8521 20.5844 49.1471 20.4152 49.5266 20.3305C50.2431 20.1611 51.0018 20.1611 51.7184 20.3728C52.0977 20.4998 52.3927 20.6691 52.6879 20.8808C52.9829 21.0925 53.1937 21.3888 53.4044 21.7275C53.573 22.0661 53.6573 22.4894 53.6573 22.9128C53.6573 23.3785 53.6152 23.8018 53.6152 23.8018L53.4887 23.7594C52.8142 23.5478 52.1399 23.3785 51.4654 23.2938C50.7911 23.2091 50.2009 23.1668 49.6108 23.1668C48.9364 23.1668 48.3463 23.2514 47.7983 23.3785C47.2504 23.5055 46.7446 23.7594 46.3653 24.0558C45.9438 24.3521 45.6486 24.7755 45.3958 25.2835C45.185 25.7914 45.0586 26.3841 45.0586 27.0614C45.0586 27.7388 45.185 28.3314 45.4801 28.8394C45.733 29.3475 46.1123 29.7708 46.576 30.1094C47.0396 30.4481 47.5454 30.7021 48.0934 30.8714C49.3579 31.2525 50.6224 31.2102 51.8027 30.7868C52.4349 30.5328 53.025 30.1518 53.4887 29.5591L53.6573 29.3898V29.7285C53.6573 30.3211 54.1631 30.8291 54.7532 30.8291H55.7227V30.4481C55.7227 30.3211 55.7227 30.1941 55.7227 30.0671V27.0614H55.6384Z" fill="white"/>
<path d="M29.5478 27.0614C29.2528 26.9768 27.9883 26.6381 27.061 27.6541C26.8923 27.8658 26.6395 28.1198 26.3865 28.2891C26.0493 28.5431 25.67 28.7125 25.2906 28.8818C24.8691 29.0511 24.4476 29.1358 23.9418 29.1358C23.5625 29.1358 23.183 29.0935 22.8037 28.9664C22.4665 28.8818 22.1293 28.7125 21.8764 28.5431C21.5813 28.3738 21.3706 28.1621 21.202 27.9081C21.0334 27.6541 20.949 27.3578 20.949 27.0614C20.949 26.7228 21.0755 26.4264 21.2442 26.2148C21.4127 25.9608 21.6657 25.7914 21.9607 25.6221C22.2558 25.4528 22.5508 25.3681 22.888 25.2835C23.2252 25.2411 23.5203 25.1988 23.8153 25.1988C24.1947 25.1988 24.574 25.2411 24.9534 25.2835C25.3328 25.3681 25.7121 25.4105 26.0493 25.4952C26.3865 25.5798 26.6816 25.6221 26.9345 25.7068C27.6089 25.9185 28.6626 25.9185 29.1263 25.5798C29.3371 25.4105 29.5478 25.1988 29.59 24.7755V23.6748V23.4631C29.59 22.5318 29.4214 21.7275 29.1263 21.0925C28.8313 20.4575 28.4519 19.9071 27.9883 19.4838C27.5246 19.0605 26.9766 18.7641 26.3443 18.5525C25.7121 18.3408 25.0377 18.2561 24.3211 18.2561C23.731 18.2561 23.0988 18.3408 22.5508 18.5102C21.9607 18.6794 21.4549 18.9335 20.9912 19.3144C20.5275 19.6531 20.1482 20.1188 19.8532 20.6268C19.5582 21.1348 19.3895 21.8121 19.3474 22.4894H20.1904C20.8227 22.4894 21.2442 22.1508 21.4127 21.8968C21.5813 21.6852 22.0028 21.0502 22.4665 20.7538C22.7615 20.5844 23.0566 20.4152 23.436 20.3305C24.1525 20.1611 24.9113 20.1611 25.6278 20.3728C26.0072 20.4998 26.3023 20.6691 26.5973 20.8808C26.8923 21.0925 27.1031 21.3888 27.3138 21.7275C27.4825 22.0661 27.5668 22.4894 27.5668 22.9128C27.5668 23.3785 27.5246 23.8018 27.5246 23.8018L27.3981 23.7594C26.7238 23.5478 26.0493 23.3785 25.3749 23.2938C24.7005 23.2091 24.1103 23.1668 23.5203 23.1668C22.8458 23.1668 22.2558 23.2514 21.7078 23.3785C21.1598 23.5055 20.654 23.7594 20.2747 24.0558C19.8532 24.3521 19.5582 24.7755 19.3052 25.2835C19.0945 25.7914 18.968 26.3841 18.968 27.0614C18.968 27.7388 19.0945 28.3314 19.3895 28.8394C19.6424 29.3475 20.0218 29.7708 20.4854 30.1094C20.949 30.4481 21.4549 30.7021 22.0028 30.8714C23.2673 31.2525 24.5319 31.2102 25.7121 30.7868C26.3443 30.5328 26.9345 30.1518 27.3981 29.5591L27.5668 29.3898V29.7285C27.5668 30.3211 28.0726 30.8291 28.6626 30.8291H29.6321V30.4481C29.6321 30.3211 29.6321 30.1941 29.6321 30.0671V27.0614H29.5478Z" fill="white"/>
<path d="M17.3661 24.6914C17.3661 20.585 15.7644 18.5108 12.4766 18.4261C11.4229 18.3837 9.82109 18.68 8.55659 19.95L8.47229 20.0347L8.43014 19.95C8.21939 19.6537 7.92433 19.442 7.62928 19.1881C6.49121 18.2567 4.04647 18.045 2.52904 18.7647C1.05377 19.4844 0.463658 20.9237 0.295055 21.6858C0.0843017 22.49 0 23.4637 0 24.5644V28.84C0 29.9831 0.885165 30.9144 2.02323 30.9567V23.2944C2.02323 21.7281 3.28776 20.4158 4.88949 20.4158C6.44906 20.4158 7.75573 21.6858 7.75573 23.2944V28.7977C7.75573 29.9407 8.64089 30.872 9.77893 30.9144V23.2097C9.77893 21.6858 11.0014 20.4158 12.5609 20.4158C14.1205 20.4158 15.3429 21.6434 15.3429 23.2097V28.84C15.3429 29.9831 16.2702 30.9567 17.4082 30.999C17.3661 30.3217 17.3661 25.8767 17.3661 24.6914Z" fill="white"/>
<path d="M57.1562 24.6485C57.1562 28.7549 58.758 30.8292 62.0457 30.9138C63.0995 30.9561 64.7013 30.6599 65.9658 29.3899L66.0501 29.3052L66.1343 29.3899C66.3451 29.6861 66.6402 29.8978 66.9353 30.1519C68.0733 31.0832 70.5181 31.2949 72.0355 30.5752C73.5108 29.8555 74.1009 28.4161 74.2694 27.6542C74.4381 26.8499 74.5646 25.9185 74.5646 24.7755V20.4999C74.5646 19.3569 73.6794 18.4255 72.5413 18.3832V26.0455C72.5413 27.6119 71.2768 28.9242 69.6751 28.9242C68.1155 28.9242 66.8088 27.6542 66.8088 26.0455V20.5422C66.8088 19.3992 65.9236 18.4678 64.7855 18.4255V26.1302C64.7855 27.6542 63.5632 28.9242 62.0037 28.9242C60.4862 28.9242 59.2217 27.6965 59.2217 26.1302V20.4999C59.2217 19.3569 58.2944 18.3832 57.1562 18.3408C57.1562 19.0182 57.1562 23.4632 57.1562 24.6485Z" fill="white"/>
<path d="M95.8929 0.434121C95.8508 0.222455 95.6821 0.0531213 95.4714 0.0107879C95.2606 -0.0315453 95.0499 0.0531213 94.9234 0.222455C91.4249 5.51412 83.1212 7.12279 83.0369 7.16512C81.8146 7.37679 80.7186 7.80012 80.6765 7.84246C78.4004 8.77378 76.8408 14.0655 76.2928 16.3091C74.7754 14.6581 73.6795 12.5838 73.1315 10.3824C73.1736 10.2555 73.2158 10.1285 73.1736 10.0015C73.0893 9.74744 72.7943 9.57811 72.4993 9.66278C72.0778 9.78983 71.6563 9.78983 71.2768 9.57811C71.3611 9.28178 71.5298 9.02778 71.7827 8.81611C71.9513 8.68911 71.9934 8.43511 71.9091 8.22345L70.8975 5.68345C71.5298 5.34479 72.1621 5.26012 72.8365 5.38712C75.1126 5.81045 76.9672 8.60445 76.9672 8.64678C77.0516 8.81611 77.2201 8.90078 77.3887 8.90078C77.4731 8.90078 77.5994 8.85845 77.6838 8.81611C77.9367 8.64678 77.9789 8.35046 77.8524 8.09646C77.7681 7.96946 75.7449 4.87912 73.0473 4.37112C71.9935 4.15945 70.9818 4.37112 70.0545 4.96379C70.0123 4.96379 69.9702 5.00612 69.928 5.00612C69.8859 5.04845 69.8438 5.04845 69.8438 5.09079C69.8438 5.09079 69.8016 5.09079 69.8016 5.13312C69.8016 5.13312 69.8016 5.17545 69.7595 5.17545C68.9165 5.85279 68.4106 6.91112 68.4106 8.05412C68.4106 9.49345 69.2115 10.8058 70.5182 11.3985C70.6025 11.4408 70.6446 11.4408 70.7289 11.4408C70.8553 11.4408 70.9818 11.3985 71.0661 11.3138C71.2348 11.1868 71.2768 10.9751 71.2348 10.7635C71.2348 10.7211 71.2348 10.6788 71.1926 10.6365C71.4455 10.7211 71.6984 10.7635 71.9513 10.7635C71.9934 10.7635 72.0778 10.7635 72.1199 10.7635C73.2158 15.1661 76.5457 18.9761 80.6344 20.5424C81.5195 22.8708 82.784 25.1991 84.0064 27.4428C84.1329 27.6968 84.2593 27.9085 84.3857 28.1624C82.236 26.1728 80.1285 23.2518 78.7797 20.9235C78.6532 20.6694 78.3161 20.5847 78.0631 20.7118C77.8102 20.8388 77.7259 21.1774 77.8524 21.4314C79.707 24.6911 82.8684 28.7551 85.6924 30.5331C85.7767 30.5755 85.861 30.6178 85.9875 30.6178C86.114 30.6178 86.2404 30.5755 86.3247 30.4908C86.4933 30.3214 86.5355 30.0674 86.4512 29.8558C85.9453 28.8821 85.4395 27.9085 84.9337 26.9347C83.7114 24.6488 82.4469 22.3205 81.5617 19.9921C81.5617 19.9497 81.5195 19.9497 81.5195 19.9074C81.5195 18.4258 81.4352 17.1558 81.1823 15.9705C81.6038 15.8858 82.0254 15.8435 82.3204 15.8435C86.7462 15.8435 90.329 12.4991 90.4976 12.3721C97.1153 6.57245 95.9351 0.688121 95.8929 0.434121ZM69.4644 8.09646C69.4644 7.46146 69.6751 6.86879 70.0545 6.40312L70.8132 8.35046C70.476 8.73145 70.2653 9.19711 70.181 9.70514C70.181 9.74744 70.181 9.74744 70.181 9.78983C70.181 9.83212 70.1388 9.87442 70.1388 9.91681C69.7173 9.40878 69.4644 8.77378 69.4644 8.09646ZM80.4657 19.3994C79.3277 18.8914 78.2739 18.1718 77.3044 17.3674C77.8946 16.9018 79.0326 16.5208 80.1285 16.2668C80.3814 17.1981 80.4657 18.2141 80.4657 19.3994ZM89.781 11.6948C89.7389 11.7371 86.3668 14.9121 82.3204 14.9121C81.941 14.9121 81.2666 14.9968 80.4657 15.1661C79.4963 15.3778 78.3582 15.6741 77.4309 16.0974C78.2317 13.1764 79.6227 9.40878 81.098 8.81611C81.098 8.81611 82.1096 8.39278 83.2055 8.22345C85.2709 7.88478 91.4671 6.02212 94.9234 1.95812C94.9234 3.90545 94.2069 7.75779 89.781 11.6948Z" fill="white"/>
</svg>
