<svg width="8" height="22" viewBox="0 0 8 22" fill="none" xmlns="http://www.w3.org/2000/svg">
<path d="M-9.41156e-07 21.5311L-2.04942e-08 0.468852C-9.17509e-09 0.209902 0.209902 9.17509e-09 0.468852 2.04942e-08L7.03279 3.07413e-07C7.29174 3.18732e-07 7.50164 0.209902 7.50164 0.468853L7.50164 21.5311C7.50164 21.7901 7.29174 22 7.03279 22L0.468851 22C0.209901 22 -9.52475e-07 21.7901 -9.41156e-07 21.5311ZM6.56393 21.0623L6.56393 0.937705L0.937705 0.937705L0.937705 3.96721L3.57049 3.96721C3.82944 3.96721 4.03934 4.17712 4.03934 4.43607C4.03934 4.69502 3.82944 4.90492 3.57049 4.90492L0.937705 4.90492L0.937705 7.17705L1.98361 7.17705C2.24256 7.17705 2.45246 7.38695 2.45246 7.6459C2.45246 7.90485 2.24256 8.11475 1.98361 8.11475L0.937705 8.11475L0.937704 10.5311L3.57049 10.5311C3.82944 10.5311 4.03934 10.741 4.03934 11C4.03934 11.259 3.82944 11.4689 3.57049 11.4689L0.937704 11.4689L0.937704 13.8131L1.98361 13.8131C2.24256 13.8131 2.45246 14.023 2.45246 14.282C2.45246 14.5409 2.24256 14.7508 1.98361 14.7508L0.937704 14.7508L0.937704 17.0951L3.57049 17.0951C3.82944 17.0951 4.03934 17.305 4.03934 17.5639C4.03934 17.8229 3.82944 18.0328 3.57049 18.0328L0.937704 18.0328L0.937704 21.0623L6.56393 21.0623Z" fill="#205CA4"/>
</svg>
