<svg width="41" height="41" viewBox="0 0 41 41" fill="none" xmlns="http://www.w3.org/2000/svg">
<circle cx="20.5" cy="20.5" r="20.5" fill="#205CA4"/>
<path d="M17.9115 26C17.2515 26 16.9215 25.676 16.9215 25.028C16.9215 24.404 17.2515 24.092 17.9115 24.092H19.9275V15.938L18.3975 16.856C18.1095 17.024 17.8455 17.066 17.6055 16.982C17.3775 16.898 17.2035 16.748 17.0835 16.532C16.9635 16.316 16.9275 16.082 16.9755 15.83C17.0235 15.566 17.1915 15.35 17.4795 15.182L19.9635 13.688C20.2035 13.544 20.4435 13.424 20.6835 13.328C20.9235 13.22 21.1455 13.166 21.3495 13.166C21.6015 13.166 21.8115 13.238 21.9795 13.382C22.1475 13.514 22.2315 13.736 22.2315 14.048V24.092H24.0675C24.7275 24.092 25.0575 24.404 25.0575 25.028C25.0575 25.676 24.7275 26 24.0675 26H17.9115Z" fill="white"/>
</svg>
