<svg width="41" height="41" viewBox="0 0 41 41" fill="none" xmlns="http://www.w3.org/2000/svg">
<circle cx="20.5" cy="20.5" r="20.5" fill="#205CA4"/>
<path d="M17.4975 26C17.1135 26 16.8315 25.916 16.6515 25.748C16.4835 25.568 16.3995 25.31 16.3995 24.974C16.3995 24.77 16.4535 24.572 16.5615 24.38C16.6695 24.188 16.8255 23.984 17.0295 23.768L20.6475 19.916C21.1995 19.34 21.5955 18.818 21.8355 18.35C22.0755 17.87 22.1955 17.39 22.1955 16.91C22.1955 15.686 21.4575 15.074 19.9815 15.074C19.5735 15.074 19.1655 15.134 18.7575 15.254C18.3495 15.362 17.9355 15.554 17.5155 15.83C17.2515 16.01 17.0055 16.064 16.7775 15.992C16.5495 15.92 16.3755 15.776 16.2555 15.56C16.1355 15.332 16.0935 15.092 16.1295 14.84C16.1775 14.588 16.3335 14.372 16.5975 14.192C17.1135 13.844 17.6895 13.58 18.3255 13.4C18.9735 13.22 19.6215 13.13 20.2695 13.13C21.6255 13.13 22.6635 13.436 23.3835 14.048C24.1155 14.66 24.4815 15.536 24.4815 16.676C24.4815 17.444 24.2955 18.182 23.9235 18.89C23.5635 19.598 22.9935 20.36 22.2135 21.176L19.4235 24.092H24.1215C24.7815 24.092 25.1115 24.404 25.1115 25.028C25.1115 25.676 24.7815 26 24.1215 26H17.4975Z" fill="white"/>
</svg>
