<svg width="36" height="36" viewBox="0 0 36 36" fill="none" xmlns="http://www.w3.org/2000/svg">
<path fill-rule="evenodd" clip-rule="evenodd" d="M30.7547 5.23233C29.0942 3.56882 27.1185 2.24979 24.9421 1.35164C22.7657 0.453498 20.4319 -0.00590242 18.0758 5.72492e-05C8.19632 5.72492e-05 0.153744 8.00247 0.14975 17.8391C0.14975 20.9828 0.974374 24.051 2.54176 26.7576L0 36L9.50214 33.518C12.1305 34.942 15.0752 35.6887 18.0679 35.69H18.0758C27.9534 35.69 35.9959 27.6876 35.9999 17.851C36.0067 15.5071 35.5467 13.1851 34.6463 11.0191C33.746 8.85325 32.4233 6.88641 30.7547 5.23233ZM18.0758 32.6794H18.0698C15.4013 32.6797 12.7819 31.9651 10.4865 30.6107L9.94341 30.2888L4.30482 31.7613L5.80831 26.2906L5.4549 25.7302C3.96296 23.3663 3.17317 20.6306 3.1767 17.8391C3.18069 9.66377 9.86354 3.01264 18.0818 3.01264C20.0391 3.00831 21.9777 3.39037 23.7856 4.13669C25.5935 4.88302 27.2347 5.9788 28.6143 7.36061C30.0012 8.73583 31.1005 10.371 31.8486 12.1716C32.5968 13.9722 32.9789 15.9025 32.973 17.851C32.969 26.0263 26.2861 32.6794 18.0758 32.6794ZM26.2482 21.573C25.7989 21.3484 23.5986 20.2714 23.1873 20.1223C22.778 19.9733 22.4805 19.8998 22.181 20.3449C21.8815 20.79 21.0229 21.7936 20.7614 22.0917C20.4998 22.3897 20.2382 22.4255 19.791 22.2029C19.3437 21.9804 17.9001 21.5094 16.189 19.9912C14.8572 18.8088 13.9587 17.3502 13.6971 16.9031C13.4356 16.456 13.6692 16.2155 13.8948 15.993C14.0965 15.7942 14.3421 15.4723 14.5657 15.212C14.7893 14.9517 14.8632 14.7669 15.0129 14.4688C15.1627 14.1707 15.0888 13.9104 14.975 13.6878C14.8632 13.4633 13.9667 11.2694 13.5933 10.3772C13.2319 9.51274 12.8625 9.628 12.587 9.61607C12.3016 9.60446 12.016 9.59915 11.7304 9.60017C11.5033 9.60593 11.2799 9.65833 11.074 9.75408C10.8682 9.84983 10.6845 9.98686 10.5344 10.1566C10.1231 10.6037 8.96704 11.6808 8.96704 13.8746C8.96704 16.0685 10.5724 18.1888 10.796 18.4869C11.0196 18.785 13.9547 23.286 18.4472 25.2175C19.5174 25.6765 20.352 25.9508 21.001 26.1574C22.0732 26.4973 23.0495 26.4476 23.8222 26.3343C24.6828 26.2071 26.4718 25.2572 26.8452 24.216C27.2186 23.1747 27.2186 22.2824 27.1068 22.0956C26.995 21.9088 26.6935 21.7956 26.2482 21.573Z" fill="#FFFFFF"/>
</svg>
