<svg width="125" height="48" viewBox="0 0 125 48" fill="none" xmlns="http://www.w3.org/2000/svg">
<rect width="125" height="48" rx="10" fill="#7DAFEB" fill-opacity="0.3"/>
<path d="M46.55 29.112C46.074 29.112 45.7473 28.86 45.57 28.356L42.644 20.082C42.5413 19.7833 42.56 19.5313 42.7 19.326C42.8493 19.1207 43.0967 19.018 43.442 19.018C43.694 19.018 43.89 19.0787 44.03 19.2C44.17 19.312 44.282 19.494 44.366 19.746L46.606 26.41L48.958 19.76C49.1353 19.2653 49.434 19.018 49.854 19.018C50.078 19.018 50.2553 19.0787 50.386 19.2C50.5167 19.3213 50.6287 19.5127 50.722 19.774L53.032 26.508L55.342 19.746C55.426 19.5033 55.538 19.3213 55.678 19.2C55.818 19.0787 56.0093 19.018 56.252 19.018C56.5507 19.018 56.77 19.1207 56.91 19.326C57.05 19.5313 57.0687 19.7833 56.966 20.082L54.012 28.37C53.9187 28.622 53.7973 28.8087 53.648 28.93C53.4987 29.0513 53.298 29.112 53.046 29.112C52.794 29.112 52.5933 29.0513 52.444 28.93C52.2947 28.8087 52.1733 28.6173 52.08 28.356L49.798 21.874L47.502 28.37C47.4087 28.622 47.2873 28.8087 47.138 28.93C46.998 29.0513 46.802 29.112 46.55 29.112ZM59.9212 29.112C59.3425 29.112 59.0532 28.8133 59.0532 28.216V19.9C59.0532 19.312 59.3425 19.018 59.9212 19.018C60.5092 19.018 60.8032 19.312 60.8032 19.9V23.148C61.0365 22.7747 61.3492 22.4947 61.7412 22.308C62.1332 22.112 62.5672 22.014 63.0432 22.014C64.6579 22.014 65.4652 22.952 65.4652 24.828V28.216C65.4652 28.8133 65.1759 29.112 64.5972 29.112C64.0092 29.112 63.7152 28.8133 63.7152 28.216V24.912C63.7152 24.38 63.6125 23.9927 63.4072 23.75C63.2112 23.5073 62.9032 23.386 62.4832 23.386C61.9699 23.386 61.5592 23.5493 61.2512 23.876C60.9525 24.1933 60.8032 24.618 60.8032 25.15V28.216C60.8032 28.8133 60.5092 29.112 59.9212 29.112ZM69.3567 29.14C68.862 29.14 68.4187 29.0467 68.0267 28.86C67.644 28.664 67.3407 28.4027 67.1167 28.076C66.902 27.7493 66.7947 27.3807 66.7947 26.97C66.7947 26.466 66.9253 26.0693 67.1867 25.78C67.448 25.4813 67.8727 25.2667 68.4607 25.136C69.0487 25.0053 69.8373 24.94 70.8267 24.94H71.3167V24.646C71.3167 24.1793 71.214 23.8433 71.0087 23.638C70.8033 23.4327 70.458 23.33 69.9727 23.33C69.702 23.33 69.408 23.3627 69.0907 23.428C68.7827 23.4933 68.456 23.6053 68.1107 23.764C67.8867 23.8667 67.7 23.8807 67.5507 23.806C67.4013 23.722 67.2987 23.596 67.2427 23.428C67.196 23.2507 67.2053 23.0733 67.2707 22.896C67.3453 22.7187 67.49 22.588 67.7047 22.504C68.134 22.3267 68.5447 22.2007 68.9367 22.126C69.338 22.0513 69.702 22.014 70.0287 22.014C71.0273 22.014 71.7693 22.2473 72.2547 22.714C72.74 23.1713 72.9827 23.8853 72.9827 24.856V28.216C72.9827 28.8133 72.712 29.112 72.1707 29.112C71.62 29.112 71.3447 28.8133 71.3447 28.216V27.908C71.186 28.2907 70.934 28.594 70.5887 28.818C70.2433 29.0327 69.8327 29.14 69.3567 29.14ZM69.7207 27.936C70.178 27.936 70.556 27.7773 70.8547 27.46C71.1627 27.1427 71.3167 26.7413 71.3167 26.256V25.948H70.8407C69.9633 25.948 69.352 26.018 69.0067 26.158C68.6707 26.2887 68.5027 26.5313 68.5027 26.886C68.5027 27.194 68.61 27.446 68.8247 27.642C69.0393 27.838 69.338 27.936 69.7207 27.936ZM77.7549 29.14C75.9442 29.14 75.0389 28.244 75.0389 26.452V23.47H74.3109C73.8442 23.47 73.6109 23.2507 73.6109 22.812C73.6109 22.3733 73.8442 22.154 74.3109 22.154H75.0389V20.88C75.0389 20.292 75.3329 19.998 75.9209 19.998C76.4996 19.998 76.7889 20.292 76.7889 20.88V22.154H78.2729C78.7396 22.154 78.9729 22.3733 78.9729 22.812C78.9729 23.2507 78.7396 23.47 78.2729 23.47H76.7889V26.354C76.7889 26.802 76.8869 27.138 77.0829 27.362C77.2789 27.586 77.5962 27.698 78.0349 27.698C78.1936 27.698 78.3336 27.684 78.4549 27.656C78.5762 27.628 78.6836 27.6093 78.7769 27.6C78.8889 27.5907 78.9822 27.628 79.0569 27.712C79.1316 27.7867 79.1689 27.9453 79.1689 28.188C79.1689 28.3747 79.1362 28.5427 79.0709 28.692C79.0149 28.832 78.9076 28.93 78.7489 28.986C78.6276 29.0233 78.4689 29.056 78.2729 29.084C78.0769 29.1213 77.9042 29.14 77.7549 29.14ZM82.358 29.14C81.9566 29.14 81.532 29.098 81.084 29.014C80.636 28.93 80.2346 28.7853 79.88 28.58C79.684 28.468 79.5626 28.3327 79.516 28.174C79.4693 28.006 79.474 27.852 79.53 27.712C79.5953 27.5627 79.698 27.4553 79.838 27.39C79.9873 27.3247 80.16 27.3387 80.356 27.432C80.7293 27.6093 81.0793 27.7353 81.406 27.81C81.7326 27.8753 82.0546 27.908 82.372 27.908C82.82 27.908 83.1513 27.8333 83.366 27.684C83.59 27.5253 83.702 27.32 83.702 27.068C83.702 26.676 83.4126 26.424 82.834 26.312L81.434 26.046C80.2486 25.822 79.656 25.206 79.656 24.198C79.656 23.75 79.7773 23.3627 80.02 23.036C80.272 22.7093 80.6173 22.4573 81.056 22.28C81.4946 22.1027 81.9986 22.014 82.568 22.014C83.3893 22.014 84.122 22.196 84.766 22.56C84.9433 22.6533 85.046 22.784 85.074 22.952C85.1113 23.1107 85.0926 23.2647 85.018 23.414C84.9526 23.554 84.8453 23.6567 84.696 23.722C84.5466 23.778 84.374 23.7593 84.178 23.666C83.8886 23.5167 83.6086 23.4093 83.338 23.344C83.0766 23.2787 82.8246 23.246 82.582 23.246C82.1246 23.246 81.784 23.3253 81.56 23.484C81.3453 23.6427 81.238 23.8527 81.238 24.114C81.238 24.5247 81.504 24.7767 82.036 24.87L83.436 25.136C84.0426 25.248 84.5 25.4533 84.808 25.752C85.1253 26.0507 85.284 26.452 85.284 26.956C85.284 27.6373 85.018 28.174 84.486 28.566C83.954 28.9487 83.2446 29.14 82.358 29.14ZM88.8019 29.14C88.3072 29.14 87.8639 29.0467 87.4719 28.86C87.0892 28.664 86.7859 28.4027 86.5619 28.076C86.3472 27.7493 86.2399 27.3807 86.2399 26.97C86.2399 26.466 86.3706 26.0693 86.6319 25.78C86.8932 25.4813 87.3179 25.2667 87.9059 25.136C88.4939 25.0053 89.2826 24.94 90.2719 24.94H90.7619V24.646C90.7619 24.1793 90.6592 23.8433 90.4539 23.638C90.2486 23.4327 89.9032 23.33 89.4179 23.33C89.1472 23.33 88.8532 23.3627 88.5359 23.428C88.2279 23.4933 87.9012 23.6053 87.5559 23.764C87.3319 23.8667 87.1452 23.8807 86.9959 23.806C86.8466 23.722 86.7439 23.596 86.6879 23.428C86.6412 23.2507 86.6506 23.0733 86.7159 22.896C86.7906 22.7187 86.9352 22.588 87.1499 22.504C87.5792 22.3267 87.9899 22.2007 88.3819 22.126C88.7832 22.0513 89.1472 22.014 89.4739 22.014C90.4726 22.014 91.2146 22.2473 91.6999 22.714C92.1852 23.1713 92.4279 23.8853 92.4279 24.856V28.216C92.4279 28.8133 92.1572 29.112 91.6159 29.112C91.0652 29.112 90.7899 28.8133 90.7899 28.216V27.908C90.6312 28.2907 90.3792 28.594 90.0339 28.818C89.6886 29.0327 89.2779 29.14 88.8019 29.14ZM89.1659 27.936C89.6232 27.936 90.0012 27.7773 90.2999 27.46C90.6079 27.1427 90.7619 26.7413 90.7619 26.256V25.948H90.2859C89.4086 25.948 88.7972 26.018 88.4519 26.158C88.1159 26.2887 87.9479 26.5313 87.9479 26.886C87.9479 27.194 88.0552 27.446 88.2699 27.642C88.4846 27.838 88.7832 27.936 89.1659 27.936ZM94.9321 31.632C94.3535 31.632 94.0641 31.338 94.0641 30.75V22.924C94.0641 22.336 94.3488 22.042 94.9181 22.042C95.4968 22.042 95.7861 22.336 95.7861 22.924V23.218C95.9821 22.854 96.2761 22.5647 96.6681 22.35C97.0601 22.126 97.5081 22.014 98.0121 22.014C98.6095 22.014 99.1321 22.1587 99.5801 22.448C100.037 22.7373 100.392 23.148 100.644 23.68C100.896 24.2027 101.022 24.8327 101.022 25.57C101.022 26.298 100.896 26.9327 100.644 27.474C100.392 28.006 100.042 28.4167 99.5941 28.706C99.1461 28.9953 98.6188 29.14 98.0121 29.14C97.5268 29.14 97.0881 29.0373 96.6961 28.832C96.3135 28.6173 96.0195 28.3327 95.8141 27.978V30.75C95.8141 31.338 95.5201 31.632 94.9321 31.632ZM97.5221 27.81C98.0448 27.81 98.4648 27.6233 98.7821 27.25C99.0995 26.8673 99.2581 26.3073 99.2581 25.57C99.2581 24.8233 99.0995 24.268 98.7821 23.904C98.4648 23.5307 98.0448 23.344 97.5221 23.344C96.9995 23.344 96.5795 23.5307 96.2621 23.904C95.9448 24.268 95.7861 24.8233 95.7861 25.57C95.7861 26.3073 95.9448 26.8673 96.2621 27.25C96.5795 27.6233 96.9995 27.81 97.5221 27.81ZM103.187 31.632C102.608 31.632 102.319 31.338 102.319 30.75V22.924C102.319 22.336 102.603 22.042 103.173 22.042C103.751 22.042 104.041 22.336 104.041 22.924V23.218C104.237 22.854 104.531 22.5647 104.923 22.35C105.315 22.126 105.763 22.014 106.267 22.014C106.864 22.014 107.387 22.1587 107.835 22.448C108.292 22.7373 108.647 23.148 108.899 23.68C109.151 24.2027 109.277 24.8327 109.277 25.57C109.277 26.298 109.151 26.9327 108.899 27.474C108.647 28.006 108.297 28.4167 107.849 28.706C107.401 28.9953 106.873 29.14 106.267 29.14C105.781 29.14 105.343 29.0373 104.951 28.832C104.568 28.6173 104.274 28.3327 104.069 27.978V30.75C104.069 31.338 103.775 31.632 103.187 31.632ZM105.777 27.81C106.299 27.81 106.719 27.6233 107.037 27.25C107.354 26.8673 107.513 26.3073 107.513 25.57C107.513 24.8233 107.354 24.268 107.037 23.904C106.719 23.5307 106.299 23.344 105.777 23.344C105.254 23.344 104.834 23.5307 104.517 23.904C104.199 24.268 104.041 24.8233 104.041 25.57C104.041 26.3073 104.199 26.8673 104.517 27.25C104.834 27.6233 105.254 27.81 105.777 27.81Z" fill="#7DAFEB"/>
<path d="M30.8442 19.6999C28.4442 15.9999 23.5442 14.8999 19.7442 17.1999C16.0442 19.4999 14.8442 24.4999 17.2442 28.1999L17.4442 28.4999L16.6442 31.4999L19.6442 30.6999L19.9442 30.8999C21.2442 31.5999 22.6442 31.9999 24.0442 31.9999C25.5442 31.9999 27.0442 31.5999 28.3442 30.7999C32.0442 28.3999 33.1442 23.4999 30.8442 19.6999ZM28.7442 27.3999C28.3442 27.9999 27.8442 28.3999 27.1442 28.4999C26.7442 28.4999 26.2442 28.6999 24.2442 27.8999C22.5442 27.0999 21.1442 25.7999 20.1442 24.2999C19.5442 23.5999 19.2442 22.6999 19.1442 21.7999C19.1442 20.9999 19.4442 20.2999 19.9442 19.7999C20.1442 19.5999 20.3442 19.4999 20.5442 19.4999H21.0442C21.2442 19.4999 21.4442 19.4999 21.5442 19.8999C21.7442 20.3999 22.2442 21.5999 22.2442 21.6999C22.3442 21.7999 22.3442 21.9999 22.2442 22.0999C22.3442 22.2999 22.2442 22.4999 22.1442 22.5999C22.0442 22.6999 21.9442 22.8999 21.8442 22.9999C21.6442 23.0999 21.5442 23.2999 21.6442 23.4999C22.0442 24.0999 22.5442 24.6999 23.0442 25.1999C23.6442 25.6999 24.2442 26.0999 24.9442 26.3999C25.1442 26.4999 25.3442 26.4999 25.4442 26.2999C25.5442 26.0999 26.0442 25.5999 26.2442 25.3999C26.4442 25.1999 26.5442 25.1999 26.7442 25.2999L28.3442 26.0999C28.5442 26.1999 28.7442 26.2999 28.8442 26.3999C28.9442 26.6999 28.9442 27.0999 28.7442 27.3999Z" fill="#7DAFEB"/>
</svg>
