<svg width="30" height="30" viewBox="0 0 30 30" fill="none" xmlns="http://www.w3.org/2000/svg">
<path fill-rule="evenodd" clip-rule="evenodd" d="M25.6289 4.36027C24.2451 2.97402 22.5987 1.87482 20.7851 1.12637C18.9714 0.377915 17.0266 -0.00491868 15.0632 4.77077e-05C6.83027 4.77077e-05 0.12812 6.66873 0.124792 14.8659C0.124792 17.4857 0.811978 20.0425 2.11813 22.298L0 30L7.91845 27.9317C10.1088 29.1183 12.5627 29.7406 15.0565 29.7417H15.0632C23.2945 29.7417 29.9966 23.073 29.9999 14.8758C30.0056 12.9226 29.6222 10.9875 28.872 9.18262C28.1217 7.3777 27.0194 5.73868 25.6289 4.36027ZM15.0632 27.2328H15.0582C12.8344 27.2331 10.6516 26.6376 8.73875 25.5089L8.28617 25.2407L3.58735 26.4678L4.84026 21.9088L4.54575 21.4418C3.30247 19.4719 2.64431 17.1922 2.64725 14.8659C2.65058 8.05314 8.21962 2.51053 15.0682 2.51053C16.6992 2.50692 18.3148 2.82531 19.8213 3.44725C21.3279 4.06919 22.6956 4.98234 23.8452 6.13384C25.001 7.27986 25.9171 8.6425 26.5405 10.143C27.164 11.6435 27.4824 13.2521 27.4775 14.8758C27.4742 21.6886 21.9051 27.2328 15.0632 27.2328ZM21.8735 17.9775C21.4991 17.7904 19.6655 16.8928 19.3228 16.7686C18.9817 16.6444 18.7337 16.5832 18.4842 16.9541C18.2346 17.325 17.5191 18.1613 17.3011 18.4097C17.0832 18.6581 16.8652 18.6879 16.4925 18.5024C16.1198 18.317 14.9168 17.9245 13.4908 16.6593C12.381 15.674 11.6323 14.4585 11.4143 14.0859C11.1963 13.7133 11.391 13.5129 11.579 13.3275C11.7471 13.1619 11.9517 12.8936 12.1381 12.6767C12.3244 12.4597 12.386 12.3057 12.5108 12.0573C12.6356 11.8089 12.574 11.592 12.4792 11.4065C12.386 11.2194 11.6389 9.39118 11.3278 8.64764C11.0266 7.92728 10.7188 8.02333 10.4892 8.01339C10.2514 8.00371 10.0134 7.9993 9.77535 8.00014C9.5861 8.00494 9.39988 8.04861 9.22837 8.1284C9.05686 8.20819 8.90377 8.32238 8.77868 8.46382C8.43592 8.83642 7.47253 9.73397 7.47253 11.5622C7.47253 13.3904 8.8103 15.1573 8.99665 15.4057C9.18301 15.6541 11.6289 19.405 15.3727 21.0146C16.2645 21.3971 16.96 21.6256 17.5008 21.7979C18.3943 22.081 19.2079 22.0396 19.8519 21.9453C20.569 21.8393 22.0599 21.0477 22.371 20.18C22.6821 19.3122 22.6821 18.5687 22.589 18.413C22.4958 18.2574 22.2445 18.163 21.8735 17.9775Z" fill="#205CA4"/>
</svg>
